<svg width="119" height="61" viewBox="0 0 119 61" fill="none" xmlns="http://www.w3.org/2000/svg">
<g filter="url(#filter0_d_48_149)">
<path fill-rule="evenodd" clip-rule="evenodd" d="M47.6006 2.00005C47.6006 2.00004 47.6006 2.00002 47.6006 2.00001C47.6007 2 47.6007 2 47.6007 2H102.027C107.535 2 112 6.46502 112 11.9729V37.6175C112 43.1253 107.535 47.5904 102.027 47.5904H47.6007C47.6007 47.5904 47.6007 47.5904 47.6006 47.5904C47.6006 47.5903 47.6006 47.5903 47.6006 47.5903L29.7834 32.3801C25.1197 28.3988 25.1197 21.1916 29.7834 17.2102L47.6006 2.00005ZM35.6144 29.0695C37.975 29.0695 39.8885 27.1559 39.8885 24.7954C39.8885 22.4349 37.975 20.5213 35.6144 20.5213C33.2539 20.5213 31.3403 22.4349 31.3403 24.7954C31.3403 27.1559 33.2539 29.0695 35.6144 29.0695Z" fill="#DBEDD5"/>
<path d="M29.7834 32.3801L30.4772 31.5675L29.7834 32.3801ZM29.7834 17.2102L29.0896 16.3976L29.7834 17.2102ZM47.6006 47.5903L48.2943 46.7776L47.6006 47.5903ZM47.6006 2.00005L46.9068 1.18738L47.6006 2.00005ZM47.6006 2.00001L47.9758 3.00053L47.6006 2.00001ZM102.027 0.931476H47.6007V3.06852H102.027V0.931476ZM113.069 11.9729C113.069 5.87489 108.125 0.931476 102.027 0.931476V3.06852C106.945 3.06852 110.932 7.05515 110.932 11.9729H113.069ZM113.069 37.6175V11.9729H110.932V37.6175H113.069ZM102.027 48.6589C108.125 48.6589 113.069 43.7155 113.069 37.6175H110.932C110.932 42.5352 106.945 46.5218 102.027 46.5218V48.6589ZM47.6007 48.6589H102.027V46.5218H47.6007V48.6589ZM29.0896 33.1928L46.9068 48.403L48.2943 46.7776L30.4772 31.5675L29.0896 33.1928ZM29.0896 16.3976C23.9263 20.8054 23.9263 28.7849 29.0896 33.1928L30.4772 31.5675C26.3132 28.0127 26.3132 21.5777 30.4772 18.0229L29.0896 16.3976ZM46.9068 1.18738L29.0896 16.3976L30.4772 18.0229L48.2943 2.81272L46.9068 1.18738ZM38.82 24.7954C38.82 26.5658 37.3848 28.001 35.6144 28.001V30.138C38.5651 30.138 40.9571 27.7461 40.9571 24.7954H38.82ZM35.6144 21.5898C37.3848 21.5898 38.82 23.025 38.82 24.7954H40.9571C40.9571 21.8448 38.5651 19.4528 35.6144 19.4528V21.5898ZM32.4089 24.7954C32.4089 23.025 33.8441 21.5898 35.6144 21.5898V19.4528C32.6638 19.4528 30.2718 21.8448 30.2718 24.7954H32.4089ZM35.6144 28.001C33.8441 28.001 32.4089 26.5658 32.4089 24.7954H30.2718C30.2718 27.7461 32.6638 30.138 35.6144 30.138V28.001ZM47.9788 46.591C48.0915 46.6336 48.1987 46.696 48.2943 46.7776L46.9068 48.403C47.0025 48.4847 47.1098 48.5471 47.2225 48.5897L47.9788 46.591ZM47.6007 46.5218C47.7299 46.5218 47.858 46.5453 47.9788 46.591L47.2225 48.5897C47.3434 48.6355 47.4715 48.6589 47.6007 48.6589V46.5218ZM47.2255 0.999497C47.1092 1.04312 47.0013 1.1067 46.9068 1.18738L48.2943 2.81272C48.1999 2.89337 48.0921 2.95693 47.9758 3.00053L47.2255 0.999497ZM47.9758 3.00053C47.8576 3.04483 47.7307 3.06852 47.6007 3.06852V0.931476C47.4707 0.931476 47.3437 0.955183 47.2255 0.999497L47.9758 3.00053Z" fill="#704F3D"/>
</g>
<g filter="url(#filter1_d_48_149)">
<line x1="7.4247" y1="24.7955" x2="34.494" y2="24.7955" stroke="#704F3D" stroke-width="2.8494" stroke-linecap="round"/>
</g>
<path d="M54.6422 31.18C53.6102 31.18 52.6982 30.976 51.9062 30.568C51.1262 30.16 50.4542 29.548 49.8902 28.732L51.2222 27.202C51.8102 28.042 52.3742 28.624 52.9142 28.948C53.4542 29.272 54.0962 29.434 54.8402 29.434C55.2962 29.434 55.7102 29.362 56.0822 29.218C56.4542 29.074 56.7482 28.876 56.9642 28.624C57.1802 28.372 57.2882 28.084 57.2882 27.76C57.2882 27.544 57.2522 27.34 57.1802 27.148C57.1082 26.956 56.9942 26.782 56.8382 26.626C56.6942 26.47 56.5022 26.326 56.2622 26.194C56.0342 26.062 55.7642 25.948 55.4522 25.852C55.1402 25.744 54.7802 25.654 54.3722 25.582C53.5082 25.414 52.7882 25.162 52.2122 24.826C51.6482 24.49 51.2222 24.064 50.9342 23.548C50.6582 23.032 50.5202 22.432 50.5202 21.748C50.5202 21.244 50.6282 20.776 50.8442 20.344C51.0722 19.912 51.3782 19.54 51.7622 19.228C52.1582 18.904 52.6202 18.658 53.1482 18.49C53.6762 18.31 54.2462 18.22 54.8582 18.22C55.8302 18.22 56.6762 18.412 57.3962 18.796C58.1282 19.168 58.7042 19.714 59.1242 20.434L57.7562 21.784C57.3962 21.196 56.9642 20.746 56.4602 20.434C55.9682 20.122 55.4162 19.966 54.8042 19.966C54.3362 19.966 53.9282 20.038 53.5802 20.182C53.2322 20.326 52.9562 20.53 52.7522 20.794C52.5602 21.046 52.4642 21.346 52.4642 21.694C52.4642 21.946 52.5122 22.18 52.6082 22.396C52.7042 22.6 52.8482 22.786 53.0402 22.954C53.2442 23.11 53.5142 23.254 53.8502 23.386C54.1862 23.506 54.5882 23.614 55.0562 23.71C55.7162 23.854 56.3042 24.04 56.8202 24.268C57.3362 24.484 57.7742 24.742 58.1342 25.042C58.4942 25.342 58.7642 25.678 58.9442 26.05C59.1362 26.422 59.2322 26.824 59.2322 27.256C59.2322 28.06 59.0462 28.756 58.6742 29.344C58.3022 29.932 57.7742 30.388 57.0902 30.712C56.4062 31.024 55.5902 31.18 54.6422 31.18ZM53.5622 32.638V24.466L55.3082 25.06V32.638H53.5622ZM56.0282 25.06L54.2822 24.466V16.924H56.0282V25.06ZM64.1287 30.118V19.894L64.7947 20.398L62.3107 21.712L61.7887 20.02L65.1547 18.22H66.0907V30.118H64.1287ZM62.1307 31V29.128H68.1427V31H62.1307ZM73.8487 31.126C73.0207 31.126 72.2707 30.94 71.5987 30.568C70.9267 30.184 70.3687 29.638 69.9247 28.93L71.0047 27.724C71.5687 28.348 72.0607 28.774 72.4807 29.002C72.9007 29.23 73.3567 29.344 73.8487 29.344C74.3407 29.344 74.7847 29.236 75.1807 29.02C75.5767 28.804 75.8887 28.51 76.1167 28.138C76.3567 27.766 76.4767 27.352 76.4767 26.896C76.4767 26.416 76.3627 25.99 76.1347 25.618C75.9187 25.234 75.6247 24.934 75.2527 24.718C74.8807 24.49 74.4607 24.376 73.9927 24.376C73.7647 24.376 73.5487 24.394 73.3447 24.43C73.1407 24.454 72.8947 24.52 72.6067 24.628C72.3187 24.736 71.9407 24.904 71.4727 25.132L70.4467 23.746L71.1847 18.4H77.9887V20.2H72.4087L72.7867 19.858L72.1927 23.854L71.7427 23.332C71.8627 23.212 72.0667 23.098 72.3547 22.99C72.6427 22.87 72.9607 22.774 73.3087 22.702C73.6687 22.618 74.0107 22.576 74.3347 22.576C75.1027 22.576 75.7867 22.756 76.3867 23.116C76.9987 23.464 77.4787 23.95 77.8267 24.574C78.1867 25.198 78.3667 25.912 78.3667 26.716C78.3667 27.544 78.1687 28.294 77.7727 28.966C77.3767 29.626 76.8367 30.154 76.1527 30.55C75.4687 30.934 74.7007 31.126 73.8487 31.126ZM81.5051 31.198C81.1091 31.198 80.8031 31.084 80.5871 30.856C80.3711 30.616 80.2631 30.28 80.2631 29.848C80.2631 29.452 80.3771 29.128 80.6051 28.876C80.8331 28.624 81.1331 28.498 81.5051 28.498C81.9011 28.498 82.2071 28.618 82.4231 28.858C82.6391 29.086 82.7471 29.416 82.7471 29.848C82.7471 30.244 82.6331 30.568 82.4051 30.82C82.1771 31.072 81.8771 31.198 81.5051 31.198ZM88.0668 31.18C87.1788 31.18 86.4048 30.976 85.7448 30.568C85.0968 30.16 84.4848 29.476 83.9088 28.516L85.4208 27.562C85.7208 28.006 86.0148 28.372 86.3028 28.66C86.6028 28.936 86.9088 29.14 87.2208 29.272C87.5328 29.404 87.8628 29.47 88.2108 29.47C88.6308 29.47 89.0208 29.368 89.3808 29.164C89.7408 28.948 90.0288 28.654 90.2448 28.282C90.4608 27.91 90.5688 27.49 90.5688 27.022C90.5688 26.554 90.4848 26.158 90.3168 25.834C90.1488 25.498 89.9028 25.246 89.5788 25.078C89.2548 24.898 88.8708 24.808 88.4268 24.808C88.2228 24.808 88.0068 24.832 87.7788 24.88C87.5628 24.916 87.3288 24.976 87.0768 25.06C86.8248 25.132 86.5488 25.228 86.2488 25.348L85.7088 23.926L89.5968 19.642L89.9748 20.2H84.6108V18.4H91.8288L92.1888 19.12L88.0668 23.692L87.6168 23.224C87.7128 23.176 87.8688 23.134 88.0848 23.098C88.3128 23.05 88.4988 23.026 88.6428 23.026C89.1708 23.026 89.6628 23.128 90.1188 23.332C90.5868 23.524 90.9888 23.8 91.3248 24.16C91.6728 24.508 91.9428 24.922 92.1348 25.402C92.3388 25.87 92.4408 26.374 92.4408 26.914C92.4408 27.73 92.2428 28.462 91.8468 29.11C91.4628 29.746 90.9408 30.25 90.2808 30.622C89.6208 30.994 88.8828 31.18 88.0668 31.18ZM98.5302 31.18C97.5702 31.18 96.7422 30.916 96.0462 30.388C95.3622 29.86 94.8342 29.116 94.4622 28.156C94.0902 27.184 93.9042 26.032 93.9042 24.7C93.9042 23.368 94.0902 22.222 94.4622 21.262C94.8342 20.29 95.3622 19.54 96.0462 19.012C96.7422 18.484 97.5702 18.22 98.5302 18.22C99.4902 18.22 100.318 18.484 101.014 19.012C101.71 19.54 102.244 20.29 102.616 21.262C102.988 22.222 103.174 23.368 103.174 24.7C103.174 26.032 102.988 27.184 102.616 28.156C102.244 29.116 101.71 29.86 101.014 30.388C100.318 30.916 99.4902 31.18 98.5302 31.18ZM98.5302 29.416C99.4062 29.416 100.084 29.008 100.564 28.192C101.044 27.364 101.284 26.2 101.284 24.7C101.284 23.2 101.044 22.042 100.564 21.226C100.084 20.398 99.4062 19.984 98.5302 19.984C97.6542 19.984 96.9762 20.398 96.4962 21.226C96.0162 22.042 95.7762 23.2 95.7762 24.7C95.7762 26.2 96.0162 27.364 96.4962 28.192C96.9762 29.008 97.6542 29.416 98.5302 29.416Z" fill="#704F3D"/>
<defs>
<filter id="filter0_d_48_149" x="19.5182" y="0.931641" width="99.2492" height="59.1246" filterUnits="userSpaceOnUse" color-interpolation-filters="sRGB">
<feFlood flood-opacity="0" result="BackgroundImageFix"/>
<feColorMatrix in="SourceAlpha" type="matrix" values="0 0 0 0 0 0 0 0 0 0 0 0 0 0 0 0 0 0 127 0" result="hardAlpha"/>
<feOffset dy="5.6988"/>
<feGaussianBlur stdDeviation="2.8494"/>
<feComposite in2="hardAlpha" operator="out"/>
<feColorMatrix type="matrix" values="0 0 0 0 0 0 0 0 0 0 0 0 0 0 0 0 0 0 0.25 0"/>
<feBlend mode="normal" in2="BackgroundImageFix" result="effect1_dropShadow_48_149"/>
<feBlend mode="normal" in="SourceGraphic" in2="effect1_dropShadow_48_149" result="shape"/>
</filter>
<filter id="filter1_d_48_149" x="0.301204" y="23.3706" width="41.3163" height="14.2472" filterUnits="userSpaceOnUse" color-interpolation-filters="sRGB">
<feFlood flood-opacity="0" result="BackgroundImageFix"/>
<feColorMatrix in="SourceAlpha" type="matrix" values="0 0 0 0 0 0 0 0 0 0 0 0 0 0 0 0 0 0 127 0" result="hardAlpha"/>
<feOffset dy="5.6988"/>
<feGaussianBlur stdDeviation="2.8494"/>
<feComposite in2="hardAlpha" operator="out"/>
<feColorMatrix type="matrix" values="0 0 0 0 0 0 0 0 0 0 0 0 0 0 0 0 0 0 0.25 0"/>
<feBlend mode="normal" in2="BackgroundImageFix" result="effect1_dropShadow_48_149"/>
<feBlend mode="normal" in="SourceGraphic" in2="effect1_dropShadow_48_149" result="shape"/>
</filter>
</defs>
</svg>
