<svg width="119" height="61" viewBox="0 0 119 61" fill="none" xmlns="http://www.w3.org/2000/svg">
<g filter="url(#filter0_d_48_41)">
<path fill-rule="evenodd" clip-rule="evenodd" d="M47.6005 2.00005C47.6005 2.00004 47.6005 2.00002 47.6005 2.00001C47.6005 2 47.6006 2 47.6006 2H102.027C107.535 2 112 6.46502 112 11.9729V37.6175C112 43.1253 107.535 47.5904 102.027 47.5904H47.6006C47.6006 47.5904 47.6005 47.5904 47.6005 47.5904C47.6005 47.5903 47.6005 47.5903 47.6005 47.5903L29.7833 32.3801C25.1196 28.3988 25.1196 21.1916 29.7833 17.2102L47.6005 2.00005ZM35.6143 29.0695C37.9748 29.0695 39.8884 27.1559 39.8884 24.7954C39.8884 22.4349 37.9748 20.5213 35.6143 20.5213C33.2538 20.5213 31.3402 22.4349 31.3402 24.7954C31.3402 27.1559 33.2538 29.0695 35.6143 29.0695Z" fill="#DBEDD5"/>
<path d="M29.7833 32.3801L30.4771 31.5675L29.7833 32.3801ZM29.7833 17.2102L29.0895 16.3976L29.7833 17.2102ZM47.6005 47.5903L48.2942 46.7776L47.6005 47.5903ZM47.6005 2.00005L46.9067 1.18738L47.6005 2.00005ZM47.6005 2.00001L47.9756 3.00053L47.6005 2.00001ZM102.027 0.931476H47.6006V3.06852H102.027V0.931476ZM113.069 11.9729C113.069 5.87489 108.125 0.931476 102.027 0.931476V3.06852C106.945 3.06852 110.932 7.05515 110.932 11.9729H113.069ZM113.069 37.6175V11.9729H110.932V37.6175H113.069ZM102.027 48.6589C108.125 48.6589 113.069 43.7155 113.069 37.6175H110.932C110.932 42.5352 106.945 46.5218 102.027 46.5218V48.6589ZM47.6006 48.6589H102.027V46.5218H47.6006V48.6589ZM29.0895 33.1928L46.9067 48.403L48.2942 46.7776L30.4771 31.5675L29.0895 33.1928ZM29.0895 16.3976C23.9262 20.8054 23.9262 28.7849 29.0895 33.1928L30.4771 31.5675C26.313 28.0127 26.313 21.5777 30.4771 18.0229L29.0895 16.3976ZM46.9067 1.18738L29.0895 16.3976L30.4771 18.0229L48.2942 2.81272L46.9067 1.18738ZM38.8199 24.7954C38.8199 26.5658 37.3847 28.001 35.6143 28.001V30.138C38.565 30.138 40.9569 27.7461 40.9569 24.7954H38.8199ZM35.6143 21.5898C37.3847 21.5898 38.8199 23.025 38.8199 24.7954H40.9569C40.9569 21.8448 38.565 19.4528 35.6143 19.4528V21.5898ZM32.4087 24.7954C32.4087 23.025 33.8439 21.5898 35.6143 21.5898V19.4528C32.6637 19.4528 30.2717 21.8448 30.2717 24.7954H32.4087ZM35.6143 28.001C33.8439 28.001 32.4087 26.5658 32.4087 24.7954H30.2717C30.2717 27.7461 32.6637 30.138 35.6143 30.138V28.001ZM47.9787 46.591C48.0914 46.6336 48.1986 46.696 48.2942 46.7776L46.9067 48.403C47.0024 48.4847 47.1096 48.5471 47.2224 48.5897L47.9787 46.591ZM47.6006 46.5218C47.7298 46.5218 47.8579 46.5453 47.9787 46.591L47.2224 48.5897C47.3432 48.6355 47.4714 48.6589 47.6006 48.6589V46.5218ZM47.2254 0.999497C47.1091 1.04312 47.0012 1.1067 46.9067 1.18738L48.2942 2.81272C48.1998 2.89337 48.0919 2.95693 47.9756 3.00053L47.2254 0.999497ZM47.9756 3.00053C47.8575 3.04483 47.7306 3.06852 47.6006 3.06852V0.931476C47.4706 0.931476 47.3436 0.955183 47.2254 0.999497L47.9756 3.00053Z" fill="#704F3D"/>
</g>
<g filter="url(#filter1_d_48_41)">
<line x1="7.4247" y1="24.7955" x2="34.494" y2="24.7955" stroke="#704F3D" stroke-width="2.8494" stroke-linecap="round"/>
</g>
<path d="M53.9391 31.18C52.9071 31.18 51.9951 30.976 51.2031 30.568C50.4231 30.16 49.7511 29.548 49.1871 28.732L50.5191 27.202C51.1071 28.042 51.6711 28.624 52.2111 28.948C52.7511 29.272 53.3931 29.434 54.1371 29.434C54.5931 29.434 55.0071 29.362 55.3791 29.218C55.7511 29.074 56.0451 28.876 56.2611 28.624C56.4771 28.372 56.5851 28.084 56.5851 27.76C56.5851 27.544 56.5491 27.34 56.4771 27.148C56.4051 26.956 56.2911 26.782 56.1351 26.626C55.9911 26.47 55.7991 26.326 55.5591 26.194C55.3311 26.062 55.0611 25.948 54.7491 25.852C54.4371 25.744 54.0771 25.654 53.6691 25.582C52.8051 25.414 52.0851 25.162 51.5091 24.826C50.9451 24.49 50.5191 24.064 50.2311 23.548C49.9551 23.032 49.8171 22.432 49.8171 21.748C49.8171 21.244 49.9251 20.776 50.1411 20.344C50.3691 19.912 50.6751 19.54 51.0591 19.228C51.4551 18.904 51.9171 18.658 52.4451 18.49C52.9731 18.31 53.5431 18.22 54.1551 18.22C55.1271 18.22 55.9731 18.412 56.6931 18.796C57.4251 19.168 58.0011 19.714 58.4211 20.434L57.0531 21.784C56.6931 21.196 56.2611 20.746 55.7571 20.434C55.2651 20.122 54.7131 19.966 54.1011 19.966C53.6331 19.966 53.2251 20.038 52.8771 20.182C52.5291 20.326 52.2531 20.53 52.0491 20.794C51.8571 21.046 51.7611 21.346 51.7611 21.694C51.7611 21.946 51.8091 22.18 51.9051 22.396C52.0011 22.6 52.1451 22.786 52.3371 22.954C52.5411 23.11 52.8111 23.254 53.1471 23.386C53.4831 23.506 53.8851 23.614 54.3531 23.71C55.0131 23.854 55.6011 24.04 56.1171 24.268C56.6331 24.484 57.0711 24.742 57.4311 25.042C57.7911 25.342 58.0611 25.678 58.2411 26.05C58.4331 26.422 58.5291 26.824 58.5291 27.256C58.5291 28.06 58.3431 28.756 57.9711 29.344C57.5991 29.932 57.0711 30.388 56.3871 30.712C55.7031 31.024 54.8871 31.18 53.9391 31.18ZM52.8591 32.638V24.466L54.6051 25.06V32.638H52.8591ZM55.3251 25.06L53.5791 24.466V16.924H55.3251V25.06ZM63.4255 30.118V19.894L64.0915 20.398L61.6075 21.712L61.0855 20.02L64.4515 18.22H65.3875V30.118H63.4255ZM61.4275 31V29.128H67.4395V31H61.4275ZM73.9735 31.18C73.0135 31.18 72.1855 30.916 71.4895 30.388C70.8055 29.86 70.2775 29.116 69.9055 28.156C69.5335 27.184 69.3475 26.032 69.3475 24.7C69.3475 23.368 69.5335 22.222 69.9055 21.262C70.2775 20.29 70.8055 19.54 71.4895 19.012C72.1855 18.484 73.0135 18.22 73.9735 18.22C74.9335 18.22 75.7615 18.484 76.4575 19.012C77.1535 19.54 77.6875 20.29 78.0595 21.262C78.4315 22.222 78.6175 23.368 78.6175 24.7C78.6175 26.032 78.4315 27.184 78.0595 28.156C77.6875 29.116 77.1535 29.86 76.4575 30.388C75.7615 30.916 74.9335 31.18 73.9735 31.18ZM73.9735 29.416C74.8495 29.416 75.5275 29.008 76.0075 28.192C76.4875 27.364 76.7275 26.2 76.7275 24.7C76.7275 23.2 76.4875 22.042 76.0075 21.226C75.5275 20.398 74.8495 19.984 73.9735 19.984C73.0975 19.984 72.4195 20.398 71.9395 21.226C71.4595 22.042 71.2195 23.2 71.2195 24.7C71.2195 26.2 71.4595 27.364 71.9395 28.192C72.4195 29.008 73.0975 29.416 73.9735 29.416ZM81.5051 31.198C81.1091 31.198 80.8031 31.084 80.5871 30.856C80.3711 30.616 80.2631 30.28 80.2631 29.848C80.2631 29.452 80.3771 29.128 80.6051 28.876C80.8331 28.624 81.1331 28.498 81.5051 28.498C81.9011 28.498 82.2071 28.618 82.4231 28.858C82.6391 29.086 82.7471 29.416 82.7471 29.848C82.7471 30.244 82.6331 30.568 82.4051 30.82C82.1771 31.072 81.8771 31.198 81.5051 31.198ZM88.1748 31.126C87.3468 31.126 86.5968 30.94 85.9248 30.568C85.2528 30.184 84.6948 29.638 84.2508 28.93L85.3308 27.724C85.8948 28.348 86.3868 28.774 86.8068 29.002C87.2268 29.23 87.6828 29.344 88.1748 29.344C88.6668 29.344 89.1108 29.236 89.5068 29.02C89.9028 28.804 90.2148 28.51 90.4428 28.138C90.6828 27.766 90.8028 27.352 90.8028 26.896C90.8028 26.416 90.6888 25.99 90.4608 25.618C90.2448 25.234 89.9508 24.934 89.5788 24.718C89.2068 24.49 88.7868 24.376 88.3188 24.376C88.0908 24.376 87.8748 24.394 87.6708 24.43C87.4668 24.454 87.2208 24.52 86.9328 24.628C86.6448 24.736 86.2668 24.904 85.7988 25.132L84.7728 23.746L85.5108 18.4H92.3148V20.2H86.7348L87.1128 19.858L86.5188 23.854L86.0688 23.332C86.1888 23.212 86.3928 23.098 86.6808 22.99C86.9688 22.87 87.2868 22.774 87.6348 22.702C87.9948 22.618 88.3368 22.576 88.6608 22.576C89.4288 22.576 90.1128 22.756 90.7128 23.116C91.3248 23.464 91.8048 23.95 92.1528 24.574C92.5128 25.198 92.6928 25.912 92.6928 26.716C92.6928 27.544 92.4948 28.294 92.0988 28.966C91.7028 29.626 91.1628 30.154 90.4788 30.55C89.7948 30.934 89.0268 31.126 88.1748 31.126ZM99.2333 31.18C98.2733 31.18 97.4453 30.916 96.7493 30.388C96.0653 29.86 95.5373 29.116 95.1653 28.156C94.7933 27.184 94.6073 26.032 94.6073 24.7C94.6073 23.368 94.7933 22.222 95.1653 21.262C95.5373 20.29 96.0653 19.54 96.7493 19.012C97.4453 18.484 98.2733 18.22 99.2333 18.22C100.193 18.22 101.021 18.484 101.717 19.012C102.413 19.54 102.947 20.29 103.319 21.262C103.691 22.222 103.877 23.368 103.877 24.7C103.877 26.032 103.691 27.184 103.319 28.156C102.947 29.116 102.413 29.86 101.717 30.388C101.021 30.916 100.193 31.18 99.2333 31.18ZM99.2333 29.416C100.109 29.416 100.787 29.008 101.267 28.192C101.747 27.364 101.987 26.2 101.987 24.7C101.987 23.2 101.747 22.042 101.267 21.226C100.787 20.398 100.109 19.984 99.2333 19.984C98.3573 19.984 97.6793 20.398 97.1993 21.226C96.7193 22.042 96.4793 23.2 96.4793 24.7C96.4793 26.2 96.7193 27.364 97.1993 28.192C97.6793 29.008 98.3573 29.416 99.2333 29.416Z" fill="#704F3D"/>
<defs>
<filter id="filter0_d_48_41" x="19.5182" y="0.931641" width="99.2492" height="59.1246" filterUnits="userSpaceOnUse" color-interpolation-filters="sRGB">
<feFlood flood-opacity="0" result="BackgroundImageFix"/>
<feColorMatrix in="SourceAlpha" type="matrix" values="0 0 0 0 0 0 0 0 0 0 0 0 0 0 0 0 0 0 127 0" result="hardAlpha"/>
<feOffset dy="5.6988"/>
<feGaussianBlur stdDeviation="2.8494"/>
<feComposite in2="hardAlpha" operator="out"/>
<feColorMatrix type="matrix" values="0 0 0 0 0 0 0 0 0 0 0 0 0 0 0 0 0 0 0.25 0"/>
<feBlend mode="normal" in2="BackgroundImageFix" result="effect1_dropShadow_48_41"/>
<feBlend mode="normal" in="SourceGraphic" in2="effect1_dropShadow_48_41" result="shape"/>
</filter>
<filter id="filter1_d_48_41" x="0.301204" y="23.3706" width="41.3163" height="14.2472" filterUnits="userSpaceOnUse" color-interpolation-filters="sRGB">
<feFlood flood-opacity="0" result="BackgroundImageFix"/>
<feColorMatrix in="SourceAlpha" type="matrix" values="0 0 0 0 0 0 0 0 0 0 0 0 0 0 0 0 0 0 127 0" result="hardAlpha"/>
<feOffset dy="5.6988"/>
<feGaussianBlur stdDeviation="2.8494"/>
<feComposite in2="hardAlpha" operator="out"/>
<feColorMatrix type="matrix" values="0 0 0 0 0 0 0 0 0 0 0 0 0 0 0 0 0 0 0.25 0"/>
<feBlend mode="normal" in2="BackgroundImageFix" result="effect1_dropShadow_48_41"/>
<feBlend mode="normal" in="SourceGraphic" in2="effect1_dropShadow_48_41" result="shape"/>
</filter>
</defs>
</svg>
