<svg width="119" height="61" viewBox="0 0 119 61" fill="none" xmlns="http://www.w3.org/2000/svg">
<g filter="url(#filter0_d_48_108)">
<path fill-rule="evenodd" clip-rule="evenodd" d="M47.6006 2.00005C47.6006 2.00004 47.6006 2.00002 47.6006 2.00001C47.6007 2 47.6007 2 47.6007 2H102.027C107.535 2 112 6.46502 112 11.9729V37.6175C112 43.1253 107.535 47.5904 102.027 47.5904H47.6007C47.6007 47.5904 47.6007 47.5904 47.6006 47.5904C47.6006 47.5903 47.6006 47.5903 47.6006 47.5903L29.7834 32.3801C25.1197 28.3988 25.1197 21.1916 29.7834 17.2102L47.6006 2.00005ZM35.6144 29.0695C37.975 29.0695 39.8885 27.1559 39.8885 24.7954C39.8885 22.4349 37.975 20.5213 35.6144 20.5213C33.2539 20.5213 31.3403 22.4349 31.3403 24.7954C31.3403 27.1559 33.2539 29.0695 35.6144 29.0695Z" fill="#DBEDD5"/>
<path d="M29.7834 32.3801L30.4772 31.5675L29.7834 32.3801ZM29.7834 17.2102L29.0896 16.3976L29.7834 17.2102ZM47.6006 47.5903L48.2943 46.7776L47.6006 47.5903ZM47.6006 2.00005L46.9068 1.18738L47.6006 2.00005ZM47.6006 2.00001L47.9758 3.00053L47.6006 2.00001ZM102.027 0.931476H47.6007V3.06852H102.027V0.931476ZM113.069 11.9729C113.069 5.87489 108.125 0.931476 102.027 0.931476V3.06852C106.945 3.06852 110.932 7.05515 110.932 11.9729H113.069ZM113.069 37.6175V11.9729H110.932V37.6175H113.069ZM102.027 48.6589C108.125 48.6589 113.069 43.7155 113.069 37.6175H110.932C110.932 42.5352 106.945 46.5218 102.027 46.5218V48.6589ZM47.6007 48.6589H102.027V46.5218H47.6007V48.6589ZM29.0896 33.1928L46.9068 48.403L48.2943 46.7776L30.4772 31.5675L29.0896 33.1928ZM29.0896 16.3976C23.9263 20.8054 23.9263 28.7849 29.0896 33.1928L30.4772 31.5675C26.3132 28.0127 26.3132 21.5777 30.4772 18.0229L29.0896 16.3976ZM46.9068 1.18738L29.0896 16.3976L30.4772 18.0229L48.2943 2.81272L46.9068 1.18738ZM38.82 24.7954C38.82 26.5658 37.3848 28.001 35.6144 28.001V30.138C38.5651 30.138 40.9571 27.7461 40.9571 24.7954H38.82ZM35.6144 21.5898C37.3848 21.5898 38.82 23.025 38.82 24.7954H40.9571C40.9571 21.8448 38.5651 19.4528 35.6144 19.4528V21.5898ZM32.4089 24.7954C32.4089 23.025 33.8441 21.5898 35.6144 21.5898V19.4528C32.6638 19.4528 30.2718 21.8448 30.2718 24.7954H32.4089ZM35.6144 28.001C33.8441 28.001 32.4089 26.5658 32.4089 24.7954H30.2718C30.2718 27.7461 32.6638 30.138 35.6144 30.138V28.001ZM47.9788 46.591C48.0915 46.6336 48.1987 46.696 48.2943 46.7776L46.9068 48.403C47.0025 48.4847 47.1098 48.5471 47.2225 48.5897L47.9788 46.591ZM47.6007 46.5218C47.7299 46.5218 47.858 46.5453 47.9788 46.591L47.2225 48.5897C47.3434 48.6355 47.4715 48.6589 47.6007 48.6589V46.5218ZM47.2255 0.999497C47.1092 1.04312 47.0013 1.1067 46.9068 1.18738L48.2943 2.81272C48.1999 2.89337 48.0921 2.95693 47.9758 3.00053L47.2255 0.999497ZM47.9758 3.00053C47.8576 3.04483 47.7307 3.06852 47.6007 3.06852V0.931476C47.4707 0.931476 47.3437 0.955183 47.2255 0.999497L47.9758 3.00053Z" fill="#704F3D"/>
</g>
<g filter="url(#filter1_d_48_108)">
<line x1="7.4247" y1="24.7955" x2="34.494" y2="24.7955" stroke="#704F3D" stroke-width="2.8494" stroke-linecap="round"/>
</g>
<path d="M59.1334 31.18C58.1014 31.18 57.1894 30.976 56.3974 30.568C55.6174 30.16 54.9454 29.548 54.3814 28.732L55.7134 27.202C56.3014 28.042 56.8654 28.624 57.4054 28.948C57.9454 29.272 58.5874 29.434 59.3314 29.434C59.7874 29.434 60.2014 29.362 60.5734 29.218C60.9454 29.074 61.2394 28.876 61.4554 28.624C61.6714 28.372 61.7794 28.084 61.7794 27.76C61.7794 27.544 61.7434 27.34 61.6714 27.148C61.5994 26.956 61.4854 26.782 61.3294 26.626C61.1854 26.47 60.9934 26.326 60.7534 26.194C60.5254 26.062 60.2554 25.948 59.9434 25.852C59.6314 25.744 59.2714 25.654 58.8634 25.582C57.9994 25.414 57.2794 25.162 56.7034 24.826C56.1394 24.49 55.7134 24.064 55.4254 23.548C55.1494 23.032 55.0114 22.432 55.0114 21.748C55.0114 21.244 55.1194 20.776 55.3354 20.344C55.5634 19.912 55.8694 19.54 56.2534 19.228C56.6494 18.904 57.1114 18.658 57.6394 18.49C58.1674 18.31 58.7374 18.22 59.3494 18.22C60.3214 18.22 61.1674 18.412 61.8874 18.796C62.6194 19.168 63.1954 19.714 63.6154 20.434L62.2474 21.784C61.8874 21.196 61.4554 20.746 60.9514 20.434C60.4594 20.122 59.9074 19.966 59.2954 19.966C58.8274 19.966 58.4194 20.038 58.0714 20.182C57.7234 20.326 57.4474 20.53 57.2434 20.794C57.0514 21.046 56.9554 21.346 56.9554 21.694C56.9554 21.946 57.0034 22.18 57.0994 22.396C57.1954 22.6 57.3394 22.786 57.5314 22.954C57.7354 23.11 58.0054 23.254 58.3414 23.386C58.6774 23.506 59.0794 23.614 59.5474 23.71C60.2074 23.854 60.7954 24.04 61.3114 24.268C61.8274 24.484 62.2654 24.742 62.6254 25.042C62.9854 25.342 63.2554 25.678 63.4354 26.05C63.6274 26.422 63.7234 26.824 63.7234 27.256C63.7234 28.06 63.5374 28.756 63.1654 29.344C62.7934 29.932 62.2654 30.388 61.5814 30.712C60.8974 31.024 60.0814 31.18 59.1334 31.18ZM58.0534 32.638V24.466L59.7994 25.06V32.638H58.0534ZM60.5194 25.06L58.7734 24.466V16.924H60.5194V25.06ZM69.8079 31C69.1839 31 68.6019 30.892 68.0619 30.676C67.5339 30.448 67.0719 30.136 66.6759 29.74C66.2919 29.344 65.9859 28.876 65.7579 28.336C65.5419 27.796 65.4339 27.202 65.4339 26.554C65.4339 26.23 65.4759 25.87 65.5599 25.474C65.6559 25.066 65.7939 24.622 65.9739 24.142C66.1659 23.662 66.3939 23.158 66.6579 22.63C66.9219 22.09 67.2279 21.532 67.5759 20.956L69.2139 18.184H71.1039L71.1759 18.364L69.1959 21.694C68.8359 22.306 68.5119 22.888 68.2239 23.44C67.9479 23.992 67.7139 24.514 67.5219 25.006C67.3299 25.486 67.1859 25.924 67.0899 26.32L66.6579 24.466C66.8859 24.094 67.1319 23.77 67.3959 23.494C67.6599 23.206 67.9419 22.966 68.2419 22.774C68.5539 22.582 68.8779 22.438 69.2139 22.342C69.5499 22.246 69.8979 22.198 70.2579 22.198C70.9539 22.198 71.5899 22.39 72.1659 22.774C72.7539 23.146 73.2219 23.644 73.5699 24.268C73.9299 24.892 74.1099 25.576 74.1099 26.32C74.1099 27.22 73.9239 28.024 73.5519 28.732C73.1919 29.428 72.6879 29.98 72.0399 30.388C71.3919 30.796 70.6479 31 69.8079 31ZM69.8079 29.2C70.2759 29.2 70.6899 29.092 71.0499 28.876C71.4219 28.648 71.7099 28.336 71.9139 27.94C72.1299 27.532 72.2379 27.07 72.2379 26.554C72.2379 26.11 72.1299 25.696 71.9139 25.312C71.6979 24.916 71.4099 24.598 71.0499 24.358C70.6899 24.118 70.2879 23.998 69.8439 23.998C69.3519 23.998 68.9139 24.112 68.5299 24.34C68.1459 24.568 67.8459 24.874 67.6299 25.258C67.4139 25.642 67.3059 26.068 67.3059 26.536C67.3059 27.04 67.4139 27.496 67.6299 27.904C67.8459 28.3 68.1399 28.618 68.5119 28.858C68.8839 29.086 69.3159 29.2 69.8079 29.2ZM76.7854 31.198C76.3894 31.198 76.0834 31.084 75.8674 30.856C75.6514 30.616 75.5434 30.28 75.5434 29.848C75.5434 29.452 75.6574 29.128 75.8854 28.876C76.1134 28.624 76.4134 28.498 76.7854 28.498C77.1814 28.498 77.4874 28.618 77.7034 28.858C77.9194 29.086 78.0274 29.416 78.0274 29.848C78.0274 30.244 77.9134 30.568 77.6854 30.82C77.4574 31.072 77.1574 31.198 76.7854 31.198ZM80.8451 31L86.0651 19.624L86.2811 20.2H79.9091V18.4H87.7031L87.9551 19.642L82.9331 31H80.8451ZM94.039 31.18C93.079 31.18 92.251 30.916 91.555 30.388C90.871 29.86 90.343 29.116 89.971 28.156C89.599 27.184 89.413 26.032 89.413 24.7C89.413 23.368 89.599 22.222 89.971 21.262C90.343 20.29 90.871 19.54 91.555 19.012C92.251 18.484 93.079 18.22 94.039 18.22C94.999 18.22 95.827 18.484 96.523 19.012C97.219 19.54 97.753 20.29 98.125 21.262C98.497 22.222 98.683 23.368 98.683 24.7C98.683 26.032 98.497 27.184 98.125 28.156C97.753 29.116 97.219 29.86 96.523 30.388C95.827 30.916 94.999 31.18 94.039 31.18ZM94.039 29.416C94.915 29.416 95.593 29.008 96.073 28.192C96.553 27.364 96.793 26.2 96.793 24.7C96.793 23.2 96.553 22.042 96.073 21.226C95.593 20.398 94.915 19.984 94.039 19.984C93.163 19.984 92.485 20.398 92.005 21.226C91.525 22.042 91.285 23.2 91.285 24.7C91.285 26.2 91.525 27.364 92.005 28.192C92.485 29.008 93.163 29.416 94.039 29.416Z" fill="#704F3D"/>
<defs>
<filter id="filter0_d_48_108" x="19.5182" y="0.931641" width="99.2492" height="59.1246" filterUnits="userSpaceOnUse" color-interpolation-filters="sRGB">
<feFlood flood-opacity="0" result="BackgroundImageFix"/>
<feColorMatrix in="SourceAlpha" type="matrix" values="0 0 0 0 0 0 0 0 0 0 0 0 0 0 0 0 0 0 127 0" result="hardAlpha"/>
<feOffset dy="5.6988"/>
<feGaussianBlur stdDeviation="2.8494"/>
<feComposite in2="hardAlpha" operator="out"/>
<feColorMatrix type="matrix" values="0 0 0 0 0 0 0 0 0 0 0 0 0 0 0 0 0 0 0.25 0"/>
<feBlend mode="normal" in2="BackgroundImageFix" result="effect1_dropShadow_48_108"/>
<feBlend mode="normal" in="SourceGraphic" in2="effect1_dropShadow_48_108" result="shape"/>
</filter>
<filter id="filter1_d_48_108" x="0.301204" y="23.3706" width="41.3163" height="14.2472" filterUnits="userSpaceOnUse" color-interpolation-filters="sRGB">
<feFlood flood-opacity="0" result="BackgroundImageFix"/>
<feColorMatrix in="SourceAlpha" type="matrix" values="0 0 0 0 0 0 0 0 0 0 0 0 0 0 0 0 0 0 127 0" result="hardAlpha"/>
<feOffset dy="5.6988"/>
<feGaussianBlur stdDeviation="2.8494"/>
<feComposite in2="hardAlpha" operator="out"/>
<feColorMatrix type="matrix" values="0 0 0 0 0 0 0 0 0 0 0 0 0 0 0 0 0 0 0.25 0"/>
<feBlend mode="normal" in2="BackgroundImageFix" result="effect1_dropShadow_48_108"/>
<feBlend mode="normal" in="SourceGraphic" in2="effect1_dropShadow_48_108" result="shape"/>
</filter>
</defs>
</svg>
