<svg width="119" height="61" viewBox="0 0 119 61" fill="none" xmlns="http://www.w3.org/2000/svg">
<g filter="url(#filter0_d_48_17)">
<path fill-rule="evenodd" clip-rule="evenodd" d="M47.6005 2.00005C47.6005 2.00004 47.6005 2.00002 47.6005 2.00001C47.6005 2 47.6006 2 47.6006 2H102.027C107.535 2 112 6.46502 112 11.9729V37.6175C112 43.1253 107.535 47.5904 102.027 47.5904H47.6006C47.6006 47.5904 47.6006 47.5904 47.6005 47.5904C47.6005 47.5903 47.6005 47.5903 47.6005 47.5903L29.7833 32.3801C25.1196 28.3988 25.1196 21.1916 29.7833 17.2102L47.6005 2.00005ZM35.6143 29.0695C37.9748 29.0695 39.8884 27.1559 39.8884 24.7954C39.8884 22.4349 37.9748 20.5213 35.6143 20.5213C33.2538 20.5213 31.3402 22.4349 31.3402 24.7954C31.3402 27.1559 33.2538 29.0695 35.6143 29.0695Z" fill="#DBEDD5"/>
<path d="M29.7833 32.3801L30.4771 31.5675L29.7833 32.3801ZM29.7833 17.2102L30.4771 18.0229L29.7833 17.2102ZM47.6005 47.5903L48.2942 46.7776L47.6005 47.5903ZM47.6005 2.00005L46.9067 1.18738L47.6005 2.00005ZM47.6005 2.00001L47.9756 3.00053L47.6005 2.00001ZM102.027 0.931476H47.6006V3.06852H102.027V0.931476ZM113.069 11.9729C113.069 5.87489 108.125 0.931476 102.027 0.931476V3.06852C106.945 3.06852 110.932 7.05515 110.932 11.9729H113.069ZM113.069 37.6175V11.9729H110.932V37.6175H113.069ZM102.027 48.6589C108.125 48.6589 113.069 43.7155 113.069 37.6175H110.932C110.932 42.5352 106.945 46.5218 102.027 46.5218V48.6589ZM47.6006 48.6589H102.027V46.5218H47.6006V48.6589ZM29.0895 33.1928L46.9067 48.403L48.2942 46.7776L30.4771 31.5675L29.0895 33.1928ZM29.0895 16.3976C23.9262 20.8054 23.9262 28.7849 29.0895 33.1928L30.4771 31.5675C26.313 28.0127 26.313 21.5777 30.4771 18.0229L29.0895 16.3976ZM46.9067 1.18738L29.0895 16.3976L30.4771 18.0229L48.2942 2.81272L46.9067 1.18738ZM38.8199 24.7954C38.8199 26.5658 37.3847 28.001 35.6143 28.001V30.138C38.565 30.138 40.9569 27.7461 40.9569 24.7954H38.8199ZM35.6143 21.5898C37.3847 21.5898 38.8199 23.025 38.8199 24.7954H40.9569C40.9569 21.8448 38.565 19.4528 35.6143 19.4528V21.5898ZM32.4087 24.7954C32.4087 23.025 33.8439 21.5898 35.6143 21.5898V19.4528C32.6637 19.4528 30.2717 21.8448 30.2717 24.7954H32.4087ZM35.6143 28.001C33.8439 28.001 32.4087 26.5658 32.4087 24.7954H30.2717C30.2717 27.7461 32.6637 30.138 35.6143 30.138V28.001ZM47.9787 46.591C48.0914 46.6336 48.1986 46.696 48.2942 46.7776L46.9067 48.403C47.0024 48.4847 47.1096 48.5471 47.2224 48.5897L47.9787 46.591ZM47.6006 46.5218C47.7298 46.5218 47.8579 46.5453 47.9787 46.591L47.2224 48.5897C47.3432 48.6355 47.4714 48.6589 47.6006 48.6589V46.5218ZM47.2254 0.999497C47.1091 1.04312 47.0012 1.1067 46.9067 1.18738L48.2942 2.81272C48.1998 2.89337 48.0919 2.95693 47.9756 3.00053L47.2254 0.999497ZM47.9756 3.00053C47.8575 3.04483 47.7306 3.06852 47.6006 3.06852V0.931476C47.4706 0.931476 47.3436 0.955183 47.2254 0.999497L47.9756 3.00053Z" fill="#704F3D"/>
</g>
<g filter="url(#filter1_d_48_17)">
<line x1="7.4247" y1="24.7955" x2="34.494" y2="24.7955" stroke="#704F3D" stroke-width="2.8494" stroke-linecap="round"/>
</g>
<path d="M54.985 31.18C53.953 31.18 53.041 30.976 52.249 30.568C51.469 30.16 50.797 29.548 50.233 28.732L51.565 27.202C52.153 28.042 52.717 28.624 53.257 28.948C53.797 29.272 54.439 29.434 55.183 29.434C55.639 29.434 56.053 29.362 56.425 29.218C56.797 29.074 57.091 28.876 57.307 28.624C57.523 28.372 57.631 28.084 57.631 27.76C57.631 27.544 57.595 27.34 57.523 27.148C57.451 26.956 57.337 26.782 57.181 26.626C57.037 26.47 56.845 26.326 56.605 26.194C56.377 26.062 56.107 25.948 55.795 25.852C55.483 25.744 55.123 25.654 54.715 25.582C53.851 25.414 53.131 25.162 52.555 24.826C51.991 24.49 51.565 24.064 51.277 23.548C51.001 23.032 50.863 22.432 50.863 21.748C50.863 21.244 50.971 20.776 51.187 20.344C51.415 19.912 51.721 19.54 52.105 19.228C52.501 18.904 52.963 18.658 53.491 18.49C54.019 18.31 54.589 18.22 55.201 18.22C56.173 18.22 57.019 18.412 57.739 18.796C58.471 19.168 59.047 19.714 59.467 20.434L58.099 21.784C57.739 21.196 57.307 20.746 56.803 20.434C56.311 20.122 55.759 19.966 55.147 19.966C54.679 19.966 54.271 20.038 53.923 20.182C53.575 20.326 53.299 20.53 53.095 20.794C52.903 21.046 52.807 21.346 52.807 21.694C52.807 21.946 52.855 22.18 52.951 22.396C53.047 22.6 53.191 22.786 53.383 22.954C53.587 23.11 53.857 23.254 54.193 23.386C54.529 23.506 54.931 23.614 55.399 23.71C56.059 23.854 56.647 24.04 57.163 24.268C57.679 24.484 58.117 24.742 58.477 25.042C58.837 25.342 59.107 25.678 59.287 26.05C59.479 26.422 59.575 26.824 59.575 27.256C59.575 28.06 59.389 28.756 59.017 29.344C58.645 29.932 58.117 30.388 57.433 30.712C56.749 31.024 55.933 31.18 54.985 31.18ZM53.905 32.638V24.466L55.651 25.06V32.638H53.905ZM56.371 25.06L54.625 24.466V16.924H56.371V25.06ZM65.0834 31.18C64.1954 31.18 63.4214 30.976 62.7614 30.568C62.1134 30.16 61.5014 29.476 60.9254 28.516L62.4374 27.562C62.7374 28.006 63.0314 28.372 63.3194 28.66C63.6194 28.936 63.9254 29.14 64.2374 29.272C64.5494 29.404 64.8794 29.47 65.2274 29.47C65.6474 29.47 66.0374 29.368 66.3974 29.164C66.7574 28.948 67.0454 28.654 67.2614 28.282C67.4774 27.91 67.5854 27.49 67.5854 27.022C67.5854 26.554 67.5014 26.158 67.3334 25.834C67.1654 25.498 66.9194 25.246 66.5954 25.078C66.2714 24.898 65.8874 24.808 65.4434 24.808C65.2394 24.808 65.0234 24.832 64.7954 24.88C64.5794 24.916 64.3454 24.976 64.0934 25.06C63.8414 25.132 63.5654 25.228 63.2654 25.348L62.7254 23.926L66.6134 19.642L66.9914 20.2H61.6274V18.4H68.8454L69.2054 19.12L65.0834 23.692L64.6334 23.224C64.7294 23.176 64.8854 23.134 65.1014 23.098C65.3294 23.05 65.5154 23.026 65.6594 23.026C66.1874 23.026 66.6794 23.128 67.1354 23.332C67.6034 23.524 68.0054 23.8 68.3414 24.16C68.6894 24.508 68.9594 24.922 69.1514 25.402C69.3554 25.87 69.4574 26.374 69.4574 26.914C69.4574 27.73 69.2594 28.462 68.8634 29.11C68.4794 29.746 67.9574 30.25 67.2974 30.622C66.6374 30.994 65.8994 31.18 65.0834 31.18ZM72.1088 31L77.3288 19.624L77.5448 20.2H71.1728V18.4H78.9668L79.2188 19.642L74.1968 31H72.1088ZM80.4592 31.198C80.0632 31.198 79.7572 31.084 79.5412 30.856C79.3252 30.616 79.2172 30.28 79.2172 29.848C79.2172 29.452 79.3312 29.128 79.5592 28.876C79.7872 28.624 80.0872 28.498 80.4592 28.498C80.8552 28.498 81.1612 28.618 81.3772 28.858C81.5932 29.086 81.7012 29.416 81.7012 29.848C81.7012 30.244 81.5872 30.568 81.3592 30.82C81.1312 31.072 80.8312 31.198 80.4592 31.198ZM87.1289 31.126C86.3009 31.126 85.5509 30.94 84.8789 30.568C84.2069 30.184 83.6489 29.638 83.2049 28.93L84.2849 27.724C84.8489 28.348 85.3409 28.774 85.7609 29.002C86.1809 29.23 86.6369 29.344 87.1289 29.344C87.6209 29.344 88.0649 29.236 88.4609 29.02C88.8569 28.804 89.1689 28.51 89.3969 28.138C89.6369 27.766 89.7569 27.352 89.7569 26.896C89.7569 26.416 89.6429 25.99 89.4149 25.618C89.1989 25.234 88.9049 24.934 88.5329 24.718C88.1609 24.49 87.7409 24.376 87.2729 24.376C87.0449 24.376 86.8289 24.394 86.6249 24.43C86.4209 24.454 86.1749 24.52 85.8869 24.628C85.5989 24.736 85.2209 24.904 84.7529 25.132L83.7269 23.746L84.4649 18.4H91.2689V20.2H85.6889L86.0669 19.858L85.4729 23.854L85.0229 23.332C85.1429 23.212 85.3469 23.098 85.6349 22.99C85.9229 22.87 86.2409 22.774 86.5889 22.702C86.9489 22.618 87.2909 22.576 87.6149 22.576C88.3829 22.576 89.0669 22.756 89.6669 23.116C90.2789 23.464 90.7589 23.95 91.1069 24.574C91.4669 25.198 91.6469 25.912 91.6469 26.716C91.6469 27.544 91.4489 28.294 91.0529 28.966C90.6569 29.626 90.1169 30.154 89.4329 30.55C88.7489 30.934 87.9809 31.126 87.1289 31.126ZM98.1874 31.18C97.2274 31.18 96.3994 30.916 95.7034 30.388C95.0194 29.86 94.4914 29.116 94.1194 28.156C93.7474 27.184 93.5614 26.032 93.5614 24.7C93.5614 23.368 93.7474 22.222 94.1194 21.262C94.4914 20.29 95.0194 19.54 95.7034 19.012C96.3994 18.484 97.2274 18.22 98.1874 18.22C99.1474 18.22 99.9754 18.484 100.671 19.012C101.367 19.54 101.901 20.29 102.273 21.262C102.645 22.222 102.831 23.368 102.831 24.7C102.831 26.032 102.645 27.184 102.273 28.156C101.901 29.116 101.367 29.86 100.671 30.388C99.9754 30.916 99.1474 31.18 98.1874 31.18ZM98.1874 29.416C99.0634 29.416 99.7414 29.008 100.221 28.192C100.701 27.364 100.941 26.2 100.941 24.7C100.941 23.2 100.701 22.042 100.221 21.226C99.7414 20.398 99.0634 19.984 98.1874 19.984C97.3114 19.984 96.6334 20.398 96.1534 21.226C95.6734 22.042 95.4334 23.2 95.4334 24.7C95.4334 26.2 95.6734 27.364 96.1534 28.192C96.6334 29.008 97.3114 29.416 98.1874 29.416Z" fill="#704F3D"/>
<defs>
<filter id="filter0_d_48_17" x="19.5182" y="0.931641" width="99.2492" height="59.1246" filterUnits="userSpaceOnUse" color-interpolation-filters="sRGB">
<feFlood flood-opacity="0" result="BackgroundImageFix"/>
<feColorMatrix in="SourceAlpha" type="matrix" values="0 0 0 0 0 0 0 0 0 0 0 0 0 0 0 0 0 0 127 0" result="hardAlpha"/>
<feOffset dy="5.6988"/>
<feGaussianBlur stdDeviation="2.8494"/>
<feComposite in2="hardAlpha" operator="out"/>
<feColorMatrix type="matrix" values="0 0 0 0 0 0 0 0 0 0 0 0 0 0 0 0 0 0 0.25 0"/>
<feBlend mode="normal" in2="BackgroundImageFix" result="effect1_dropShadow_48_17"/>
<feBlend mode="normal" in="SourceGraphic" in2="effect1_dropShadow_48_17" result="shape"/>
</filter>
<filter id="filter1_d_48_17" x="0.301204" y="23.3706" width="41.3163" height="14.2472" filterUnits="userSpaceOnUse" color-interpolation-filters="sRGB">
<feFlood flood-opacity="0" result="BackgroundImageFix"/>
<feColorMatrix in="SourceAlpha" type="matrix" values="0 0 0 0 0 0 0 0 0 0 0 0 0 0 0 0 0 0 127 0" result="hardAlpha"/>
<feOffset dy="5.6988"/>
<feGaussianBlur stdDeviation="2.8494"/>
<feComposite in2="hardAlpha" operator="out"/>
<feColorMatrix type="matrix" values="0 0 0 0 0 0 0 0 0 0 0 0 0 0 0 0 0 0 0.25 0"/>
<feBlend mode="normal" in2="BackgroundImageFix" result="effect1_dropShadow_48_17"/>
<feBlend mode="normal" in="SourceGraphic" in2="effect1_dropShadow_48_17" result="shape"/>
</filter>
</defs>
</svg>
