<svg width="119" height="61" viewBox="0 0 119 61" fill="none" xmlns="http://www.w3.org/2000/svg">
<g filter="url(#filter0_d_48_74)">
<path fill-rule="evenodd" clip-rule="evenodd" d="M47.6005 2.00005C47.6005 2.00004 47.6005 2.00002 47.6005 2.00001C47.6005 2 47.6006 2 47.6006 2H102.027C107.535 2 112 6.46502 112 11.9729V37.6175C112 43.1253 107.535 47.5904 102.027 47.5904H47.6006C47.6006 47.5904 47.6005 47.5904 47.6005 47.5904C47.6005 47.5903 47.6005 47.5903 47.6005 47.5903L29.7833 32.3801C25.1196 28.3988 25.1196 21.1916 29.7833 17.2102L47.6005 2.00005ZM35.6143 29.0695C37.9748 29.0695 39.8884 27.1559 39.8884 24.7954C39.8884 22.4349 37.9748 20.5213 35.6143 20.5213C33.2538 20.5213 31.3402 22.4349 31.3402 24.7954C31.3402 27.1559 33.2538 29.0695 35.6143 29.0695Z" fill="#DBEDD5"/>
<path d="M29.7833 32.3801L30.4771 31.5675L29.7833 32.3801ZM29.7833 17.2102L29.0895 16.3976L29.7833 17.2102ZM47.6005 47.5903L48.2942 46.7776L47.6005 47.5903ZM47.6005 2.00005L46.9067 1.18738L47.6005 2.00005ZM47.6005 2.00001L47.9756 3.00053L47.6005 2.00001ZM102.027 0.931476H47.6006V3.06852H102.027V0.931476ZM113.069 11.9729C113.069 5.87489 108.125 0.931476 102.027 0.931476V3.06852C106.945 3.06852 110.932 7.05515 110.932 11.9729H113.069ZM113.069 37.6175V11.9729H110.932V37.6175H113.069ZM102.027 48.6589C108.125 48.6589 113.069 43.7155 113.069 37.6175H110.932C110.932 42.5352 106.945 46.5218 102.027 46.5218V48.6589ZM47.6006 48.6589H102.027V46.5218H47.6006V48.6589ZM29.0895 33.1928L46.9067 48.403L48.2942 46.7776L30.4771 31.5675L29.0895 33.1928ZM29.0895 16.3976C23.9262 20.8054 23.9262 28.7849 29.0895 33.1928L30.4771 31.5675C26.313 28.0127 26.313 21.5777 30.4771 18.0229L29.0895 16.3976ZM46.9067 1.18738L29.0895 16.3976L30.4771 18.0229L48.2942 2.81272L46.9067 1.18738ZM38.8199 24.7954C38.8199 26.5658 37.3847 28.001 35.6143 28.001V30.138C38.565 30.138 40.9569 27.7461 40.9569 24.7954H38.8199ZM35.6143 21.5898C37.3847 21.5898 38.8199 23.025 38.8199 24.7954H40.9569C40.9569 21.8448 38.565 19.4528 35.6143 19.4528V21.5898ZM32.4087 24.7954C32.4087 23.025 33.8439 21.5898 35.6143 21.5898V19.4528C32.6637 19.4528 30.2717 21.8448 30.2717 24.7954H32.4087ZM35.6143 28.001C33.8439 28.001 32.4087 26.5658 32.4087 24.7954H30.2717C30.2717 27.7461 32.6637 30.138 35.6143 30.138V28.001ZM47.9787 46.591C48.0914 46.6336 48.1986 46.696 48.2942 46.7776L46.9067 48.403C47.0024 48.4847 47.1096 48.5471 47.2224 48.5897L47.9787 46.591ZM47.6006 46.5218C47.7298 46.5218 47.8579 46.5453 47.9787 46.591L47.2224 48.5897C47.3432 48.6355 47.4714 48.6589 47.6006 48.6589V46.5218ZM47.2254 0.999497C47.1091 1.04312 47.0012 1.1067 46.9067 1.18738L48.2942 2.81272C48.1998 2.89337 48.0919 2.95693 47.9756 3.00053L47.2254 0.999497ZM47.9756 3.00053C47.8575 3.04483 47.7306 3.06852 47.6006 3.06852V0.931476C47.4706 0.931476 47.3436 0.955183 47.2254 0.999497L47.9756 3.00053Z" fill="#704F3D"/>
</g>
<g filter="url(#filter1_d_48_74)">
<line x1="7.4247" y1="24.7955" x2="34.494" y2="24.7955" stroke="#704F3D" stroke-width="2.8494" stroke-linecap="round"/>
</g>
<path d="M58.5534 31.18C57.5214 31.18 56.6094 30.976 55.8174 30.568C55.0374 30.16 54.3654 29.548 53.8014 28.732L55.1334 27.202C55.7214 28.042 56.2854 28.624 56.8254 28.948C57.3654 29.272 58.0074 29.434 58.7514 29.434C59.2074 29.434 59.6214 29.362 59.9934 29.218C60.3654 29.074 60.6594 28.876 60.8754 28.624C61.0914 28.372 61.1994 28.084 61.1994 27.76C61.1994 27.544 61.1634 27.34 61.0914 27.148C61.0194 26.956 60.9054 26.782 60.7494 26.626C60.6054 26.47 60.4134 26.326 60.1734 26.194C59.9454 26.062 59.6754 25.948 59.3634 25.852C59.0514 25.744 58.6914 25.654 58.2834 25.582C57.4194 25.414 56.6994 25.162 56.1234 24.826C55.5594 24.49 55.1334 24.064 54.8454 23.548C54.5694 23.032 54.4314 22.432 54.4314 21.748C54.4314 21.244 54.5394 20.776 54.7554 20.344C54.9834 19.912 55.2894 19.54 55.6734 19.228C56.0694 18.904 56.5314 18.658 57.0594 18.49C57.5874 18.31 58.1574 18.22 58.7694 18.22C59.7414 18.22 60.5874 18.412 61.3074 18.796C62.0394 19.168 62.6154 19.714 63.0354 20.434L61.6674 21.784C61.3074 21.196 60.8754 20.746 60.3714 20.434C59.8794 20.122 59.3274 19.966 58.7154 19.966C58.2474 19.966 57.8394 20.038 57.4914 20.182C57.1434 20.326 56.8674 20.53 56.6634 20.794C56.4714 21.046 56.3754 21.346 56.3754 21.694C56.3754 21.946 56.4234 22.18 56.5194 22.396C56.6154 22.6 56.7594 22.786 56.9514 22.954C57.1554 23.11 57.4254 23.254 57.7614 23.386C58.0974 23.506 58.4994 23.614 58.9674 23.71C59.6274 23.854 60.2154 24.04 60.7314 24.268C61.2474 24.484 61.6854 24.742 62.0454 25.042C62.4054 25.342 62.6754 25.678 62.8554 26.05C63.0474 26.422 63.1434 26.824 63.1434 27.256C63.1434 28.06 62.9574 28.756 62.5854 29.344C62.2134 29.932 61.6854 30.388 61.0014 30.712C60.3174 31.024 59.5014 31.18 58.5534 31.18ZM57.4734 32.638V24.466L59.2194 25.06V32.638H57.4734ZM59.9394 25.06L58.1934 24.466V16.924H59.9394V25.06ZM68.7598 31.126C67.9318 31.126 67.1818 30.94 66.5098 30.568C65.8378 30.184 65.2798 29.638 64.8358 28.93L65.9158 27.724C66.4798 28.348 66.9718 28.774 67.3918 29.002C67.8118 29.23 68.2678 29.344 68.7598 29.344C69.2518 29.344 69.6958 29.236 70.0918 29.02C70.4878 28.804 70.7998 28.51 71.0278 28.138C71.2678 27.766 71.3878 27.352 71.3878 26.896C71.3878 26.416 71.2738 25.99 71.0458 25.618C70.8298 25.234 70.5358 24.934 70.1638 24.718C69.7918 24.49 69.3718 24.376 68.9038 24.376C68.6758 24.376 68.4598 24.394 68.2558 24.43C68.0518 24.454 67.8058 24.52 67.5178 24.628C67.2298 24.736 66.8518 24.904 66.3838 25.132L65.3578 23.746L66.0958 18.4H72.8998V20.2H67.3198L67.6978 19.858L67.1038 23.854L66.6538 23.332C66.7738 23.212 66.9778 23.098 67.2658 22.99C67.5538 22.87 67.8718 22.774 68.2198 22.702C68.5798 22.618 68.9218 22.576 69.2458 22.576C70.0138 22.576 70.6978 22.756 71.2978 23.116C71.9098 23.464 72.3898 23.95 72.7378 24.574C73.0978 25.198 73.2778 25.912 73.2778 26.716C73.2778 27.544 73.0798 28.294 72.6838 28.966C72.2878 29.626 71.7478 30.154 71.0638 30.55C70.3798 30.934 69.6118 31.126 68.7598 31.126ZM76.4163 31.198C76.0203 31.198 75.7143 31.084 75.4983 30.856C75.2823 30.616 75.1743 30.28 75.1743 29.848C75.1743 29.452 75.2883 29.128 75.5163 28.876C75.7443 28.624 76.0443 28.498 76.4163 28.498C76.8123 28.498 77.1183 28.618 77.3343 28.858C77.5503 29.086 77.6583 29.416 77.6583 29.848C77.6583 30.244 77.5443 30.568 77.3163 30.82C77.0883 31.072 76.7883 31.198 76.4163 31.198ZM84.3389 31V20.848L84.7889 20.956L80.6489 26.014L80.5769 25.798H88.4069V27.58H79.3709L78.5429 25.96L84.7169 18.4H86.2109V31H84.3389ZM94.619 31.18C93.659 31.18 92.831 30.916 92.135 30.388C91.451 29.86 90.923 29.116 90.551 28.156C90.179 27.184 89.993 26.032 89.993 24.7C89.993 23.368 90.179 22.222 90.551 21.262C90.923 20.29 91.451 19.54 92.135 19.012C92.831 18.484 93.659 18.22 94.619 18.22C95.579 18.22 96.407 18.484 97.103 19.012C97.799 19.54 98.333 20.29 98.705 21.262C99.077 22.222 99.263 23.368 99.263 24.7C99.263 26.032 99.077 27.184 98.705 28.156C98.333 29.116 97.799 29.86 97.103 30.388C96.407 30.916 95.579 31.18 94.619 31.18ZM94.619 29.416C95.495 29.416 96.173 29.008 96.653 28.192C97.133 27.364 97.373 26.2 97.373 24.7C97.373 23.2 97.133 22.042 96.653 21.226C96.173 20.398 95.495 19.984 94.619 19.984C93.743 19.984 93.065 20.398 92.585 21.226C92.105 22.042 91.865 23.2 91.865 24.7C91.865 26.2 92.105 27.364 92.585 28.192C93.065 29.008 93.743 29.416 94.619 29.416Z" fill="#704F3D"/>
<defs>
<filter id="filter0_d_48_74" x="19.5182" y="0.931641" width="99.2492" height="59.1246" filterUnits="userSpaceOnUse" color-interpolation-filters="sRGB">
<feFlood flood-opacity="0" result="BackgroundImageFix"/>
<feColorMatrix in="SourceAlpha" type="matrix" values="0 0 0 0 0 0 0 0 0 0 0 0 0 0 0 0 0 0 127 0" result="hardAlpha"/>
<feOffset dy="5.6988"/>
<feGaussianBlur stdDeviation="2.8494"/>
<feComposite in2="hardAlpha" operator="out"/>
<feColorMatrix type="matrix" values="0 0 0 0 0 0 0 0 0 0 0 0 0 0 0 0 0 0 0.25 0"/>
<feBlend mode="normal" in2="BackgroundImageFix" result="effect1_dropShadow_48_74"/>
<feBlend mode="normal" in="SourceGraphic" in2="effect1_dropShadow_48_74" result="shape"/>
</filter>
<filter id="filter1_d_48_74" x="0.301204" y="23.3706" width="41.3163" height="14.2472" filterUnits="userSpaceOnUse" color-interpolation-filters="sRGB">
<feFlood flood-opacity="0" result="BackgroundImageFix"/>
<feColorMatrix in="SourceAlpha" type="matrix" values="0 0 0 0 0 0 0 0 0 0 0 0 0 0 0 0 0 0 127 0" result="hardAlpha"/>
<feOffset dy="5.6988"/>
<feGaussianBlur stdDeviation="2.8494"/>
<feComposite in2="hardAlpha" operator="out"/>
<feColorMatrix type="matrix" values="0 0 0 0 0 0 0 0 0 0 0 0 0 0 0 0 0 0 0.25 0"/>
<feBlend mode="normal" in2="BackgroundImageFix" result="effect1_dropShadow_48_74"/>
<feBlend mode="normal" in="SourceGraphic" in2="effect1_dropShadow_48_74" result="shape"/>
</filter>
</defs>
</svg>
