<svg width="119" height="61" viewBox="0 0 119 61" fill="none" xmlns="http://www.w3.org/2000/svg">
<g filter="url(#filter0_d_213_261)">
<path fill-rule="evenodd" clip-rule="evenodd" d="M47.6006 2.00005C47.6006 2.00004 47.6006 2.00002 47.6006 2.00001C47.6007 2 47.6007 2 47.6007 2H102.027C107.535 2 112 6.46502 112 11.9729V37.6175C112 43.1253 107.535 47.5904 102.027 47.5904H47.6007C47.6007 47.5904 47.6007 47.5904 47.6006 47.5904C47.6006 47.5903 47.6006 47.5903 47.6006 47.5903L29.7834 32.3801C25.1197 28.3988 25.1197 21.1916 29.7834 17.2102L47.6006 2.00005ZM35.6144 29.0695C37.975 29.0695 39.8885 27.1559 39.8885 24.7954C39.8885 22.4349 37.975 20.5213 35.6144 20.5213C33.2539 20.5213 31.3403 22.4349 31.3403 24.7954C31.3403 27.1559 33.2539 29.0695 35.6144 29.0695Z" fill="#DBEDD5"/>
<path d="M29.7834 32.3801L30.4772 31.5675L29.7834 32.3801ZM29.7834 17.2102L29.0896 16.3976L29.7834 17.2102ZM47.6006 47.5903L48.2943 46.7776L47.6006 47.5903ZM47.6006 2.00005L46.9068 1.18738L47.6006 2.00005ZM47.6006 2.00001L47.9758 3.00053L47.6006 2.00001ZM102.027 0.931476H47.6007V3.06852H102.027V0.931476ZM113.069 11.9729C113.069 5.87489 108.125 0.931476 102.027 0.931476V3.06852C106.945 3.06852 110.932 7.05515 110.932 11.9729H113.069ZM113.069 37.6175V11.9729H110.932V37.6175H113.069ZM102.027 48.6589C108.125 48.6589 113.069 43.7155 113.069 37.6175H110.932C110.932 42.5352 106.945 46.5218 102.027 46.5218V48.6589ZM47.6007 48.6589H102.027V46.5218H47.6007V48.6589ZM29.0896 33.1928L46.9068 48.403L48.2943 46.7776L30.4772 31.5675L29.0896 33.1928ZM29.0896 16.3976C23.9263 20.8054 23.9263 28.7849 29.0896 33.1928L30.4772 31.5675C26.3132 28.0127 26.3132 21.5777 30.4772 18.0229L29.0896 16.3976ZM46.9068 1.18738L29.0896 16.3976L30.4772 18.0229L48.2943 2.81272L46.9068 1.18738ZM38.82 24.7954C38.82 26.5658 37.3848 28.001 35.6144 28.001V30.138C38.5651 30.138 40.9571 27.7461 40.9571 24.7954H38.82ZM35.6144 21.5898C37.3848 21.5898 38.82 23.025 38.82 24.7954H40.9571C40.9571 21.8448 38.5651 19.4528 35.6144 19.4528V21.5898ZM32.4089 24.7954C32.4089 23.025 33.8441 21.5898 35.6144 21.5898V19.4528C32.6638 19.4528 30.2718 21.8448 30.2718 24.7954H32.4089ZM35.6144 28.001C33.8441 28.001 32.4089 26.5658 32.4089 24.7954H30.2718C30.2718 27.7461 32.6638 30.138 35.6144 30.138V28.001ZM47.9788 46.591C48.0915 46.6336 48.1987 46.696 48.2943 46.7776L46.9068 48.403C47.0025 48.4847 47.1098 48.5471 47.2225 48.5897L47.9788 46.591ZM47.6007 46.5218C47.7299 46.5218 47.858 46.5453 47.9788 46.591L47.2225 48.5897C47.3434 48.6355 47.4715 48.6589 47.6007 48.6589V46.5218ZM47.2255 0.999497C47.1092 1.04312 47.0013 1.1067 46.9068 1.18738L48.2943 2.81272C48.1999 2.89337 48.0921 2.95693 47.9758 3.00053L47.2255 0.999497ZM47.9758 3.00053C47.8576 3.04483 47.7307 3.06852 47.6007 3.06852V0.931476C47.4707 0.931476 47.3437 0.955183 47.2255 0.999497L47.9758 3.00053Z" fill="#704F3D"/>
</g>
<g filter="url(#filter1_d_213_261)">
<line x1="7.4247" y1="24.7955" x2="34.494" y2="24.7955" stroke="#704F3D" stroke-width="2.8494" stroke-linecap="round"/>
</g>
<path d="M54.8268 31.18C53.7948 31.18 52.8828 30.976 52.0908 30.568C51.3108 30.16 50.6388 29.548 50.0748 28.732L51.4068 27.202C51.9948 28.042 52.5588 28.624 53.0988 28.948C53.6388 29.272 54.2808 29.434 55.0248 29.434C55.4808 29.434 55.8948 29.362 56.2668 29.218C56.6388 29.074 56.9328 28.876 57.1488 28.624C57.3648 28.372 57.4728 28.084 57.4728 27.76C57.4728 27.544 57.4368 27.34 57.3648 27.148C57.2928 26.956 57.1788 26.782 57.0228 26.626C56.8788 26.47 56.6868 26.326 56.4468 26.194C56.2188 26.062 55.9488 25.948 55.6368 25.852C55.3248 25.744 54.9648 25.654 54.5568 25.582C53.6928 25.414 52.9728 25.162 52.3968 24.826C51.8328 24.49 51.4068 24.064 51.1188 23.548C50.8428 23.032 50.7048 22.432 50.7048 21.748C50.7048 21.244 50.8128 20.776 51.0288 20.344C51.2568 19.912 51.5628 19.54 51.9468 19.228C52.3428 18.904 52.8048 18.658 53.3328 18.49C53.8608 18.31 54.4308 18.22 55.0428 18.22C56.0148 18.22 56.8608 18.412 57.5808 18.796C58.3128 19.168 58.8888 19.714 59.3088 20.434L57.9408 21.784C57.5808 21.196 57.1488 20.746 56.6448 20.434C56.1528 20.122 55.6008 19.966 54.9888 19.966C54.5208 19.966 54.1128 20.038 53.7648 20.182C53.4168 20.326 53.1408 20.53 52.9368 20.794C52.7448 21.046 52.6488 21.346 52.6488 21.694C52.6488 21.946 52.6968 22.18 52.7928 22.396C52.8888 22.6 53.0328 22.786 53.2248 22.954C53.4288 23.11 53.6988 23.254 54.0348 23.386C54.3708 23.506 54.7728 23.614 55.2408 23.71C55.9008 23.854 56.4888 24.04 57.0048 24.268C57.5208 24.484 57.9588 24.742 58.3188 25.042C58.6788 25.342 58.9488 25.678 59.1288 26.05C59.3208 26.422 59.4168 26.824 59.4168 27.256C59.4168 28.06 59.2308 28.756 58.8588 29.344C58.4868 29.932 57.9588 30.388 57.2748 30.712C56.5908 31.024 55.7748 31.18 54.8268 31.18ZM53.7468 32.638V24.466L55.4928 25.06V32.638H53.7468ZM56.2128 25.06L54.4668 24.466V16.924H56.2128V25.06ZM64.3132 30.118V19.894L64.9792 20.398L62.4952 21.712L61.9732 20.02L65.3392 18.22H66.2752V30.118H64.3132ZM62.3152 31V29.128H68.3272V31H62.3152ZM71.0812 31L70.4872 29.524L74.3392 25.186C74.5432 24.97 74.7532 24.724 74.9692 24.448C75.1972 24.16 75.4132 23.866 75.6172 23.566C75.8212 23.266 75.9832 22.972 76.1032 22.684C76.2352 22.384 76.3012 22.102 76.3012 21.838C76.3012 21.454 76.2232 21.13 76.0672 20.866C75.9232 20.59 75.7072 20.38 75.4192 20.236C75.1432 20.092 74.8072 20.02 74.4112 20.02C74.0632 20.02 73.7212 20.122 73.3852 20.326C73.0492 20.53 72.7432 20.818 72.4672 21.19C72.1912 21.562 71.9752 21.994 71.8192 22.486L70.3252 21.55C70.5292 20.854 70.8352 20.26 71.2432 19.768C71.6632 19.264 72.1612 18.88 72.7372 18.616C73.3252 18.352 73.9612 18.22 74.6452 18.22C75.3532 18.22 75.9832 18.37 76.5352 18.67C77.0872 18.958 77.5192 19.366 77.8312 19.894C78.1432 20.41 78.2992 21.01 78.2992 21.694C78.2992 21.97 78.2692 22.252 78.2092 22.54C78.1492 22.828 78.0532 23.128 77.9212 23.44C77.7892 23.74 77.6212 24.058 77.4172 24.394C77.2132 24.718 76.9672 25.06 76.6792 25.42C76.4032 25.78 76.0852 26.158 75.7252 26.554L72.8632 29.668L72.5032 29.128H78.6952V31H71.0812ZM81.3206 31.198C80.9246 31.198 80.6186 31.084 80.4026 30.856C80.1866 30.616 80.0786 30.28 80.0786 29.848C80.0786 29.452 80.1926 29.128 80.4206 28.876C80.6486 28.624 80.9486 28.498 81.3206 28.498C81.7166 28.498 82.0226 28.618 82.2386 28.858C82.4546 29.086 82.5626 29.416 82.5626 29.848C82.5626 30.244 82.4486 30.568 82.2206 30.82C81.9926 31.072 81.6926 31.198 81.3206 31.198ZM87.8823 31.18C86.9943 31.18 86.2203 30.976 85.5603 30.568C84.9123 30.16 84.3003 29.476 83.7243 28.516L85.2363 27.562C85.5363 28.006 85.8303 28.372 86.1183 28.66C86.4183 28.936 86.7243 29.14 87.0363 29.272C87.3483 29.404 87.6783 29.47 88.0263 29.47C88.4463 29.47 88.8363 29.368 89.1963 29.164C89.5563 28.948 89.8443 28.654 90.0603 28.282C90.2763 27.91 90.3843 27.49 90.3843 27.022C90.3843 26.554 90.3003 26.158 90.1323 25.834C89.9643 25.498 89.7183 25.246 89.3943 25.078C89.0703 24.898 88.6863 24.808 88.2423 24.808C88.0383 24.808 87.8223 24.832 87.5943 24.88C87.3783 24.916 87.1443 24.976 86.8923 25.06C86.6403 25.132 86.3643 25.228 86.0643 25.348L85.5243 23.926L89.4123 19.642L89.7903 20.2H84.4263V18.4H91.6443L92.0043 19.12L87.8823 23.692L87.4323 23.224C87.5283 23.176 87.6843 23.134 87.9003 23.098C88.1283 23.05 88.3143 23.026 88.4583 23.026C88.9863 23.026 89.4783 23.128 89.9343 23.332C90.4023 23.524 90.8043 23.8 91.1403 24.16C91.4883 24.508 91.7583 24.922 91.9503 25.402C92.1543 25.87 92.2563 26.374 92.2563 26.914C92.2563 27.73 92.0583 28.462 91.6623 29.11C91.2783 29.746 90.7563 30.25 90.0963 30.622C89.4363 30.994 88.6983 31.18 87.8823 31.18ZM98.3456 31.18C97.3856 31.18 96.5576 30.916 95.8616 30.388C95.1776 29.86 94.6496 29.116 94.2776 28.156C93.9056 27.184 93.7196 26.032 93.7196 24.7C93.7196 23.368 93.9056 22.222 94.2776 21.262C94.6496 20.29 95.1776 19.54 95.8616 19.012C96.5576 18.484 97.3856 18.22 98.3456 18.22C99.3056 18.22 100.134 18.484 100.83 19.012C101.526 19.54 102.06 20.29 102.432 21.262C102.804 22.222 102.99 23.368 102.99 24.7C102.99 26.032 102.804 27.184 102.432 28.156C102.06 29.116 101.526 29.86 100.83 30.388C100.134 30.916 99.3056 31.18 98.3456 31.18ZM98.3456 29.416C99.2216 29.416 99.8996 29.008 100.38 28.192C100.86 27.364 101.1 26.2 101.1 24.7C101.1 23.2 100.86 22.042 100.38 21.226C99.8996 20.398 99.2216 19.984 98.3456 19.984C97.4696 19.984 96.7916 20.398 96.3116 21.226C95.8316 22.042 95.5916 23.2 95.5916 24.7C95.5916 26.2 95.8316 27.364 96.3116 28.192C96.7916 29.008 97.4696 29.416 98.3456 29.416Z" fill="#704F3D"/>
<defs>
<filter id="filter0_d_213_261" x="19.5182" y="0.931641" width="99.2492" height="59.1246" filterUnits="userSpaceOnUse" color-interpolation-filters="sRGB">
<feFlood flood-opacity="0" result="BackgroundImageFix"/>
<feColorMatrix in="SourceAlpha" type="matrix" values="0 0 0 0 0 0 0 0 0 0 0 0 0 0 0 0 0 0 127 0" result="hardAlpha"/>
<feOffset dy="5.6988"/>
<feGaussianBlur stdDeviation="2.8494"/>
<feComposite in2="hardAlpha" operator="out"/>
<feColorMatrix type="matrix" values="0 0 0 0 0 0 0 0 0 0 0 0 0 0 0 0 0 0 0.25 0"/>
<feBlend mode="normal" in2="BackgroundImageFix" result="effect1_dropShadow_213_261"/>
<feBlend mode="normal" in="SourceGraphic" in2="effect1_dropShadow_213_261" result="shape"/>
</filter>
<filter id="filter1_d_213_261" x="0.301204" y="23.3706" width="41.3163" height="14.2472" filterUnits="userSpaceOnUse" color-interpolation-filters="sRGB">
<feFlood flood-opacity="0" result="BackgroundImageFix"/>
<feColorMatrix in="SourceAlpha" type="matrix" values="0 0 0 0 0 0 0 0 0 0 0 0 0 0 0 0 0 0 127 0" result="hardAlpha"/>
<feOffset dy="5.6988"/>
<feGaussianBlur stdDeviation="2.8494"/>
<feComposite in2="hardAlpha" operator="out"/>
<feColorMatrix type="matrix" values="0 0 0 0 0 0 0 0 0 0 0 0 0 0 0 0 0 0 0.25 0"/>
<feBlend mode="normal" in2="BackgroundImageFix" result="effect1_dropShadow_213_261"/>
<feBlend mode="normal" in="SourceGraphic" in2="effect1_dropShadow_213_261" result="shape"/>
</filter>
</defs>
</svg>
