<svg width="119" height="61" viewBox="0 0 119 61" fill="none" xmlns="http://www.w3.org/2000/svg">
<g filter="url(#filter0_d_213_139)">
<path fill-rule="evenodd" clip-rule="evenodd" d="M47.6005 2.00005C47.6005 2.00004 47.6005 2.00002 47.6005 2.00001C47.6005 2 47.6006 2 47.6006 2H102.027C107.535 2 112 6.46502 112 11.9729V37.6175C112 43.1253 107.535 47.5904 102.027 47.5904H47.6006C47.6006 47.5904 47.6005 47.5904 47.6005 47.5904C47.6005 47.5903 47.6005 47.5903 47.6005 47.5903L29.7833 32.3801C25.1196 28.3988 25.1196 21.1916 29.7833 17.2102L47.6005 2.00005ZM35.6143 29.0695C37.9748 29.0695 39.8884 27.1559 39.8884 24.7954C39.8884 22.4349 37.9748 20.5213 35.6143 20.5213C33.2538 20.5213 31.3402 22.4349 31.3402 24.7954C31.3402 27.1559 33.2538 29.0695 35.6143 29.0695Z" fill="#DBEDD5"/>
<path d="M29.7833 32.3801L30.4771 31.5675L29.7833 32.3801ZM29.7833 17.2102L29.0895 16.3976L29.7833 17.2102ZM47.6005 47.5903L48.2942 46.7776L47.6005 47.5903ZM47.6005 2.00005L46.9067 1.18738L47.6005 2.00005ZM47.6005 2.00001L47.9756 3.00053L47.6005 2.00001ZM102.027 0.931476H47.6006V3.06852H102.027V0.931476ZM113.069 11.9729C113.069 5.87489 108.125 0.931476 102.027 0.931476V3.06852C106.945 3.06852 110.932 7.05515 110.932 11.9729H113.069ZM113.069 37.6175V11.9729H110.932V37.6175H113.069ZM102.027 48.6589C108.125 48.6589 113.069 43.7155 113.069 37.6175H110.932C110.932 42.5352 106.945 46.5218 102.027 46.5218V48.6589ZM47.6006 48.6589H102.027V46.5218H47.6006V48.6589ZM29.0895 33.1928L46.9067 48.403L48.2942 46.7776L30.4771 31.5675L29.0895 33.1928ZM29.0895 16.3976C23.9262 20.8054 23.9262 28.7849 29.0895 33.1928L30.4771 31.5675C26.313 28.0127 26.313 21.5777 30.4771 18.0229L29.0895 16.3976ZM46.9067 1.18738L29.0895 16.3976L30.4771 18.0229L48.2942 2.81272L46.9067 1.18738ZM38.8199 24.7954C38.8199 26.5658 37.3847 28.001 35.6143 28.001V30.138C38.565 30.138 40.9569 27.7461 40.9569 24.7954H38.8199ZM35.6143 21.5898C37.3847 21.5898 38.8199 23.025 38.8199 24.7954H40.9569C40.9569 21.8448 38.565 19.4528 35.6143 19.4528V21.5898ZM32.4087 24.7954C32.4087 23.025 33.8439 21.5898 35.6143 21.5898V19.4528C32.6637 19.4528 30.2717 21.8448 30.2717 24.7954H32.4087ZM35.6143 28.001C33.8439 28.001 32.4087 26.5658 32.4087 24.7954H30.2717C30.2717 27.7461 32.6637 30.138 35.6143 30.138V28.001ZM47.9787 46.591C48.0914 46.6336 48.1986 46.696 48.2942 46.7776L46.9067 48.403C47.0024 48.4847 47.1096 48.5471 47.2224 48.5897L47.9787 46.591ZM47.6006 46.5218C47.7298 46.5218 47.8579 46.5453 47.9787 46.591L47.2224 48.5897C47.3432 48.6355 47.4714 48.6589 47.6006 48.6589V46.5218ZM47.2254 0.999497C47.1091 1.04312 47.0012 1.1067 46.9067 1.18738L48.2942 2.81272C48.1998 2.89337 48.0919 2.95693 47.9756 3.00053L47.2254 0.999497ZM47.9756 3.00053C47.8575 3.04483 47.7306 3.06852 47.6006 3.06852V0.931476C47.4706 0.931476 47.3436 0.955183 47.2254 0.999497L47.9756 3.00053Z" fill="#704F3D"/>
</g>
<g filter="url(#filter1_d_213_139)">
<line x1="7.4247" y1="24.7955" x2="34.494" y2="24.7955" stroke="#704F3D" stroke-width="2.8494" stroke-linecap="round"/>
</g>
<path d="M58.8961 31.18C57.8641 31.18 56.9521 30.976 56.1601 30.568C55.3801 30.16 54.7081 29.548 54.1441 28.732L55.4761 27.202C56.0641 28.042 56.6281 28.624 57.1681 28.948C57.7081 29.272 58.3501 29.434 59.0941 29.434C59.5501 29.434 59.9641 29.362 60.3361 29.218C60.7081 29.074 61.0021 28.876 61.2181 28.624C61.4341 28.372 61.5421 28.084 61.5421 27.76C61.5421 27.544 61.5061 27.34 61.4341 27.148C61.3621 26.956 61.2481 26.782 61.0921 26.626C60.9481 26.47 60.7561 26.326 60.5161 26.194C60.2881 26.062 60.0181 25.948 59.7061 25.852C59.3941 25.744 59.0341 25.654 58.6261 25.582C57.7621 25.414 57.0421 25.162 56.4661 24.826C55.9021 24.49 55.4761 24.064 55.1881 23.548C54.9121 23.032 54.7741 22.432 54.7741 21.748C54.7741 21.244 54.8821 20.776 55.0981 20.344C55.3261 19.912 55.6321 19.54 56.0161 19.228C56.4121 18.904 56.8741 18.658 57.4021 18.49C57.9301 18.31 58.5001 18.22 59.1121 18.22C60.0841 18.22 60.9301 18.412 61.6501 18.796C62.3821 19.168 62.9581 19.714 63.3781 20.434L62.0101 21.784C61.6501 21.196 61.2181 20.746 60.7141 20.434C60.2221 20.122 59.6701 19.966 59.0581 19.966C58.5901 19.966 58.1821 20.038 57.8341 20.182C57.4861 20.326 57.2101 20.53 57.0061 20.794C56.8141 21.046 56.7181 21.346 56.7181 21.694C56.7181 21.946 56.7661 22.18 56.8621 22.396C56.9581 22.6 57.1021 22.786 57.2941 22.954C57.4981 23.11 57.7681 23.254 58.1041 23.386C58.4401 23.506 58.8421 23.614 59.3101 23.71C59.9701 23.854 60.5581 24.04 61.0741 24.268C61.5901 24.484 62.0281 24.742 62.3881 25.042C62.7481 25.342 63.0181 25.678 63.1981 26.05C63.3901 26.422 63.4861 26.824 63.4861 27.256C63.4861 28.06 63.3001 28.756 62.9281 29.344C62.5561 29.932 62.0281 30.388 61.3441 30.712C60.6601 31.024 59.8441 31.18 58.8961 31.18ZM57.8161 32.638V24.466L59.5621 25.06V32.638H57.8161ZM60.2821 25.06L58.5361 24.466V16.924H60.2821V25.06ZM69.5706 31C68.9466 31 68.3646 30.892 67.8246 30.676C67.2966 30.448 66.8346 30.136 66.4386 29.74C66.0546 29.344 65.7486 28.876 65.5206 28.336C65.3046 27.796 65.1966 27.202 65.1966 26.554C65.1966 26.23 65.2386 25.87 65.3226 25.474C65.4186 25.066 65.5566 24.622 65.7366 24.142C65.9286 23.662 66.1566 23.158 66.4206 22.63C66.6846 22.09 66.9906 21.532 67.3386 20.956L68.9766 18.184H70.8666L70.9386 18.364L68.9586 21.694C68.5986 22.306 68.2746 22.888 67.9866 23.44C67.7106 23.992 67.4766 24.514 67.2846 25.006C67.0926 25.486 66.9486 25.924 66.8526 26.32L66.4206 24.466C66.6486 24.094 66.8946 23.77 67.1586 23.494C67.4226 23.206 67.7046 22.966 68.0046 22.774C68.3166 22.582 68.6406 22.438 68.9766 22.342C69.3126 22.246 69.6606 22.198 70.0206 22.198C70.7166 22.198 71.3526 22.39 71.9286 22.774C72.5166 23.146 72.9846 23.644 73.3326 24.268C73.6926 24.892 73.8726 25.576 73.8726 26.32C73.8726 27.22 73.6866 28.024 73.3146 28.732C72.9546 29.428 72.4506 29.98 71.8026 30.388C71.1546 30.796 70.4106 31 69.5706 31ZM69.5706 29.2C70.0386 29.2 70.4526 29.092 70.8126 28.876C71.1846 28.648 71.4726 28.336 71.6766 27.94C71.8926 27.532 72.0006 27.07 72.0006 26.554C72.0006 26.11 71.8926 25.696 71.6766 25.312C71.4606 24.916 71.1726 24.598 70.8126 24.358C70.4526 24.118 70.0506 23.998 69.6066 23.998C69.1146 23.998 68.6766 24.112 68.2926 24.34C67.9086 24.568 67.6086 24.874 67.3926 25.258C67.1766 25.642 67.0686 26.068 67.0686 26.536C67.0686 27.04 67.1766 27.496 67.3926 27.904C67.6086 28.3 67.9026 28.618 68.2746 28.858C68.6466 29.086 69.0786 29.2 69.5706 29.2ZM76.5481 31.198C76.1521 31.198 75.8461 31.084 75.6301 30.856C75.4141 30.616 75.3061 30.28 75.3061 29.848C75.3061 29.452 75.4201 29.128 75.6481 28.876C75.8761 28.624 76.1761 28.498 76.5481 28.498C76.9441 28.498 77.2501 28.618 77.4661 28.858C77.6821 29.086 77.7901 29.416 77.7901 29.848C77.7901 30.244 77.6761 30.568 77.4481 30.82C77.2201 31.072 76.9201 31.198 76.5481 31.198ZM83.2178 31.126C82.3898 31.126 81.6398 30.94 80.9678 30.568C80.2958 30.184 79.7378 29.638 79.2938 28.93L80.3738 27.724C80.9378 28.348 81.4298 28.774 81.8498 29.002C82.2698 29.23 82.7258 29.344 83.2178 29.344C83.7098 29.344 84.1538 29.236 84.5498 29.02C84.9458 28.804 85.2578 28.51 85.4858 28.138C85.7258 27.766 85.8458 27.352 85.8458 26.896C85.8458 26.416 85.7318 25.99 85.5038 25.618C85.2878 25.234 84.9938 24.934 84.6218 24.718C84.2498 24.49 83.8298 24.376 83.3618 24.376C83.1338 24.376 82.9178 24.394 82.7138 24.43C82.5098 24.454 82.2638 24.52 81.9758 24.628C81.6878 24.736 81.3098 24.904 80.8418 25.132L79.8158 23.746L80.5538 18.4H87.3578V20.2H81.7778L82.1558 19.858L81.5618 23.854L81.1118 23.332C81.2318 23.212 81.4358 23.098 81.7238 22.99C82.0118 22.87 82.3298 22.774 82.6778 22.702C83.0378 22.618 83.3798 22.576 83.7038 22.576C84.4718 22.576 85.1558 22.756 85.7558 23.116C86.3678 23.464 86.8478 23.95 87.1958 24.574C87.5558 25.198 87.7358 25.912 87.7358 26.716C87.7358 27.544 87.5378 28.294 87.1418 28.966C86.7458 29.626 86.2058 30.154 85.5218 30.55C84.8378 30.934 84.0698 31.126 83.2178 31.126ZM94.2763 31.18C93.3163 31.18 92.4883 30.916 91.7923 30.388C91.1083 29.86 90.5803 29.116 90.2083 28.156C89.8363 27.184 89.6503 26.032 89.6503 24.7C89.6503 23.368 89.8363 22.222 90.2083 21.262C90.5803 20.29 91.1083 19.54 91.7923 19.012C92.4883 18.484 93.3163 18.22 94.2763 18.22C95.2363 18.22 96.0643 18.484 96.7603 19.012C97.4563 19.54 97.9903 20.29 98.3623 21.262C98.7343 22.222 98.9203 23.368 98.9203 24.7C98.9203 26.032 98.7343 27.184 98.3623 28.156C97.9903 29.116 97.4563 29.86 96.7603 30.388C96.0643 30.916 95.2363 31.18 94.2763 31.18ZM94.2763 29.416C95.1523 29.416 95.8303 29.008 96.3103 28.192C96.7903 27.364 97.0303 26.2 97.0303 24.7C97.0303 23.2 96.7903 22.042 96.3103 21.226C95.8303 20.398 95.1523 19.984 94.2763 19.984C93.4003 19.984 92.7223 20.398 92.2423 21.226C91.7623 22.042 91.5223 23.2 91.5223 24.7C91.5223 26.2 91.7623 27.364 92.2423 28.192C92.7223 29.008 93.4003 29.416 94.2763 29.416Z" fill="#704F3D"/>
<defs>
<filter id="filter0_d_213_139" x="19.5182" y="0.931641" width="99.2492" height="59.1246" filterUnits="userSpaceOnUse" color-interpolation-filters="sRGB">
<feFlood flood-opacity="0" result="BackgroundImageFix"/>
<feColorMatrix in="SourceAlpha" type="matrix" values="0 0 0 0 0 0 0 0 0 0 0 0 0 0 0 0 0 0 127 0" result="hardAlpha"/>
<feOffset dy="5.6988"/>
<feGaussianBlur stdDeviation="2.8494"/>
<feComposite in2="hardAlpha" operator="out"/>
<feColorMatrix type="matrix" values="0 0 0 0 0 0 0 0 0 0 0 0 0 0 0 0 0 0 0.25 0"/>
<feBlend mode="normal" in2="BackgroundImageFix" result="effect1_dropShadow_213_139"/>
<feBlend mode="normal" in="SourceGraphic" in2="effect1_dropShadow_213_139" result="shape"/>
</filter>
<filter id="filter1_d_213_139" x="0.301204" y="23.3706" width="41.3163" height="14.2472" filterUnits="userSpaceOnUse" color-interpolation-filters="sRGB">
<feFlood flood-opacity="0" result="BackgroundImageFix"/>
<feColorMatrix in="SourceAlpha" type="matrix" values="0 0 0 0 0 0 0 0 0 0 0 0 0 0 0 0 0 0 127 0" result="hardAlpha"/>
<feOffset dy="5.6988"/>
<feGaussianBlur stdDeviation="2.8494"/>
<feComposite in2="hardAlpha" operator="out"/>
<feColorMatrix type="matrix" values="0 0 0 0 0 0 0 0 0 0 0 0 0 0 0 0 0 0 0.25 0"/>
<feBlend mode="normal" in2="BackgroundImageFix" result="effect1_dropShadow_213_139"/>
<feBlend mode="normal" in="SourceGraphic" in2="effect1_dropShadow_213_139" result="shape"/>
</filter>
</defs>
</svg>
