<svg width="119" height="61" viewBox="0 0 119 61" fill="none" xmlns="http://www.w3.org/2000/svg">
<g filter="url(#filter0_d_213_224)">
<path fill-rule="evenodd" clip-rule="evenodd" d="M47.6006 2.00005C47.6006 2.00004 47.6006 2.00002 47.6006 2.00001C47.6007 2 47.6007 2 47.6007 2H102.027C107.535 2 112 6.46502 112 11.9729V37.6175C112 43.1253 107.535 47.5904 102.027 47.5904H47.6007C47.6007 47.5904 47.6007 47.5904 47.6006 47.5904C47.6006 47.5903 47.6006 47.5903 47.6006 47.5903L29.7834 32.3801C25.1197 28.3988 25.1197 21.1916 29.7834 17.2102L47.6006 2.00005ZM35.6144 29.0695C37.975 29.0695 39.8885 27.1559 39.8885 24.7954C39.8885 22.4349 37.975 20.5213 35.6144 20.5213C33.2539 20.5213 31.3403 22.4349 31.3403 24.7954C31.3403 27.1559 33.2539 29.0695 35.6144 29.0695Z" fill="#DBEDD5"/>
<path d="M29.7834 32.3801L30.4772 31.5675L29.7834 32.3801ZM29.7834 17.2102L29.0896 16.3976L29.7834 17.2102ZM47.6006 47.5903L48.2943 46.7776L47.6006 47.5903ZM47.6006 2.00005L46.9068 1.18738L47.6006 2.00005ZM47.6006 2.00001L47.9758 3.00053L47.6006 2.00001ZM102.027 0.931476H47.6007V3.06852H102.027V0.931476ZM113.069 11.9729C113.069 5.87489 108.125 0.931476 102.027 0.931476V3.06852C106.945 3.06852 110.932 7.05515 110.932 11.9729H113.069ZM113.069 37.6175V11.9729H110.932V37.6175H113.069ZM102.027 48.6589C108.125 48.6589 113.069 43.7155 113.069 37.6175H110.932C110.932 42.5352 106.945 46.5218 102.027 46.5218V48.6589ZM47.6007 48.6589H102.027V46.5218H47.6007V48.6589ZM29.0896 33.1928L46.9068 48.403L48.2943 46.7776L30.4772 31.5675L29.0896 33.1928ZM29.0896 16.3976C23.9263 20.8054 23.9263 28.7849 29.0896 33.1928L30.4772 31.5675C26.3132 28.0127 26.3132 21.5777 30.4772 18.0229L29.0896 16.3976ZM46.9068 1.18738L29.0896 16.3976L30.4772 18.0229L48.2943 2.81272L46.9068 1.18738ZM38.82 24.7954C38.82 26.5658 37.3848 28.001 35.6144 28.001V30.138C38.5651 30.138 40.9571 27.7461 40.9571 24.7954H38.82ZM35.6144 21.5898C37.3848 21.5898 38.82 23.025 38.82 24.7954H40.9571C40.9571 21.8448 38.5651 19.4528 35.6144 19.4528V21.5898ZM32.4089 24.7954C32.4089 23.025 33.8441 21.5898 35.6144 21.5898V19.4528C32.6638 19.4528 30.2718 21.8448 30.2718 24.7954H32.4089ZM35.6144 28.001C33.8441 28.001 32.4089 26.5658 32.4089 24.7954H30.2718C30.2718 27.7461 32.6638 30.138 35.6144 30.138V28.001ZM47.9788 46.591C48.0915 46.6336 48.1987 46.696 48.2943 46.7776L46.9068 48.403C47.0025 48.4847 47.1098 48.5471 47.2225 48.5897L47.9788 46.591ZM47.6007 46.5218C47.7299 46.5218 47.858 46.5453 47.9788 46.591L47.2225 48.5897C47.3434 48.6355 47.4715 48.6589 47.6007 48.6589V46.5218ZM47.2255 0.999497C47.1092 1.04312 47.0013 1.1067 46.9068 1.18738L48.2943 2.81272C48.1999 2.89337 48.0921 2.95693 47.9758 3.00053L47.2255 0.999497ZM47.9758 3.00053C47.8576 3.04483 47.7307 3.06852 47.6007 3.06852V0.931476C47.4707 0.931476 47.3437 0.955183 47.2255 0.999497L47.9758 3.00053Z" fill="#704F3D"/>
</g>
<g filter="url(#filter1_d_213_224)">
<line x1="7.4247" y1="24.7955" x2="34.494" y2="24.7955" stroke="#704F3D" stroke-width="2.8494" stroke-linecap="round"/>
</g>
<path d="M59.7487 31.18C58.7167 31.18 57.8047 30.976 57.0127 30.568C56.2327 30.16 55.5607 29.548 54.9967 28.732L56.3287 27.202C56.9167 28.042 57.4807 28.624 58.0207 28.948C58.5607 29.272 59.2027 29.434 59.9467 29.434C60.4027 29.434 60.8167 29.362 61.1887 29.218C61.5607 29.074 61.8547 28.876 62.0707 28.624C62.2867 28.372 62.3947 28.084 62.3947 27.76C62.3947 27.544 62.3587 27.34 62.2867 27.148C62.2147 26.956 62.1007 26.782 61.9447 26.626C61.8007 26.47 61.6087 26.326 61.3687 26.194C61.1407 26.062 60.8707 25.948 60.5587 25.852C60.2467 25.744 59.8867 25.654 59.4787 25.582C58.6147 25.414 57.8947 25.162 57.3187 24.826C56.7547 24.49 56.3287 24.064 56.0407 23.548C55.7647 23.032 55.6267 22.432 55.6267 21.748C55.6267 21.244 55.7347 20.776 55.9507 20.344C56.1787 19.912 56.4847 19.54 56.8687 19.228C57.2647 18.904 57.7267 18.658 58.2547 18.49C58.7827 18.31 59.3527 18.22 59.9647 18.22C60.9367 18.22 61.7827 18.412 62.5027 18.796C63.2347 19.168 63.8107 19.714 64.2307 20.434L62.8627 21.784C62.5027 21.196 62.0707 20.746 61.5667 20.434C61.0747 20.122 60.5227 19.966 59.9107 19.966C59.4427 19.966 59.0347 20.038 58.6867 20.182C58.3387 20.326 58.0627 20.53 57.8587 20.794C57.6667 21.046 57.5707 21.346 57.5707 21.694C57.5707 21.946 57.6187 22.18 57.7147 22.396C57.8107 22.6 57.9547 22.786 58.1467 22.954C58.3507 23.11 58.6207 23.254 58.9567 23.386C59.2927 23.506 59.6947 23.614 60.1627 23.71C60.8227 23.854 61.4107 24.04 61.9267 24.268C62.4427 24.484 62.8807 24.742 63.2407 25.042C63.6007 25.342 63.8707 25.678 64.0507 26.05C64.2427 26.422 64.3387 26.824 64.3387 27.256C64.3387 28.06 64.1527 28.756 63.7807 29.344C63.4087 29.932 62.8807 30.388 62.1967 30.712C61.5127 31.024 60.6967 31.18 59.7487 31.18ZM58.6687 32.638V24.466L60.4147 25.06V32.638H58.6687ZM61.1347 25.06L59.3887 24.466V16.924H61.1347V25.06ZM67.3451 31L72.5651 19.624L72.7811 20.2H66.4091V18.4H74.2031L74.4551 19.642L69.4331 31H67.3451ZM75.6956 31.198C75.2996 31.198 74.9936 31.084 74.7776 30.856C74.5616 30.616 74.4536 30.28 74.4536 29.848C74.4536 29.452 74.5676 29.128 74.7956 28.876C75.0236 28.624 75.3236 28.498 75.6956 28.498C76.0916 28.498 76.3976 28.618 76.6136 28.858C76.8296 29.086 76.9376 29.416 76.9376 29.848C76.9376 30.244 76.8236 30.568 76.5956 30.82C76.3676 31.072 76.0676 31.198 75.6956 31.198ZM82.3653 31.126C81.5373 31.126 80.7873 30.94 80.1153 30.568C79.4433 30.184 78.8853 29.638 78.4413 28.93L79.5213 27.724C80.0853 28.348 80.5773 28.774 80.9973 29.002C81.4173 29.23 81.8733 29.344 82.3653 29.344C82.8573 29.344 83.3013 29.236 83.6973 29.02C84.0933 28.804 84.4053 28.51 84.6333 28.138C84.8733 27.766 84.9933 27.352 84.9933 26.896C84.9933 26.416 84.8793 25.99 84.6513 25.618C84.4353 25.234 84.1413 24.934 83.7693 24.718C83.3973 24.49 82.9773 24.376 82.5093 24.376C82.2813 24.376 82.0653 24.394 81.8613 24.43C81.6573 24.454 81.4113 24.52 81.1233 24.628C80.8353 24.736 80.4573 24.904 79.9893 25.132L78.9633 23.746L79.7013 18.4H86.5053V20.2H80.9253L81.3033 19.858L80.7093 23.854L80.2593 23.332C80.3793 23.212 80.5833 23.098 80.8713 22.99C81.1593 22.87 81.4773 22.774 81.8253 22.702C82.1853 22.618 82.5273 22.576 82.8513 22.576C83.6193 22.576 84.3033 22.756 84.9033 23.116C85.5153 23.464 85.9953 23.95 86.3433 24.574C86.7033 25.198 86.8833 25.912 86.8833 26.716C86.8833 27.544 86.6853 28.294 86.2893 28.966C85.8933 29.626 85.3533 30.154 84.6693 30.55C83.9853 30.934 83.2173 31.126 82.3653 31.126ZM93.4237 31.18C92.4637 31.18 91.6357 30.916 90.9397 30.388C90.2557 29.86 89.7277 29.116 89.3557 28.156C88.9837 27.184 88.7977 26.032 88.7977 24.7C88.7977 23.368 88.9837 22.222 89.3557 21.262C89.7277 20.29 90.2557 19.54 90.9397 19.012C91.6357 18.484 92.4637 18.22 93.4237 18.22C94.3837 18.22 95.2117 18.484 95.9077 19.012C96.6037 19.54 97.1377 20.29 97.5097 21.262C97.8817 22.222 98.0677 23.368 98.0677 24.7C98.0677 26.032 97.8817 27.184 97.5097 28.156C97.1377 29.116 96.6037 29.86 95.9077 30.388C95.2117 30.916 94.3837 31.18 93.4237 31.18ZM93.4237 29.416C94.2997 29.416 94.9777 29.008 95.4577 28.192C95.9377 27.364 96.1777 26.2 96.1777 24.7C96.1777 23.2 95.9377 22.042 95.4577 21.226C94.9777 20.398 94.2997 19.984 93.4237 19.984C92.5477 19.984 91.8697 20.398 91.3897 21.226C90.9097 22.042 90.6697 23.2 90.6697 24.7C90.6697 26.2 90.9097 27.364 91.3897 28.192C91.8697 29.008 92.5477 29.416 93.4237 29.416Z" fill="#704F3D"/>
<defs>
<filter id="filter0_d_213_224" x="19.5182" y="0.931641" width="99.2492" height="59.1246" filterUnits="userSpaceOnUse" color-interpolation-filters="sRGB">
<feFlood flood-opacity="0" result="BackgroundImageFix"/>
<feColorMatrix in="SourceAlpha" type="matrix" values="0 0 0 0 0 0 0 0 0 0 0 0 0 0 0 0 0 0 127 0" result="hardAlpha"/>
<feOffset dy="5.6988"/>
<feGaussianBlur stdDeviation="2.8494"/>
<feComposite in2="hardAlpha" operator="out"/>
<feColorMatrix type="matrix" values="0 0 0 0 0 0 0 0 0 0 0 0 0 0 0 0 0 0 0.25 0"/>
<feBlend mode="normal" in2="BackgroundImageFix" result="effect1_dropShadow_213_224"/>
<feBlend mode="normal" in="SourceGraphic" in2="effect1_dropShadow_213_224" result="shape"/>
</filter>
<filter id="filter1_d_213_224" x="0.301204" y="23.3706" width="41.3163" height="14.2472" filterUnits="userSpaceOnUse" color-interpolation-filters="sRGB">
<feFlood flood-opacity="0" result="BackgroundImageFix"/>
<feColorMatrix in="SourceAlpha" type="matrix" values="0 0 0 0 0 0 0 0 0 0 0 0 0 0 0 0 0 0 127 0" result="hardAlpha"/>
<feOffset dy="5.6988"/>
<feGaussianBlur stdDeviation="2.8494"/>
<feComposite in2="hardAlpha" operator="out"/>
<feColorMatrix type="matrix" values="0 0 0 0 0 0 0 0 0 0 0 0 0 0 0 0 0 0 0.25 0"/>
<feBlend mode="normal" in2="BackgroundImageFix" result="effect1_dropShadow_213_224"/>
<feBlend mode="normal" in="SourceGraphic" in2="effect1_dropShadow_213_224" result="shape"/>
</filter>
</defs>
</svg>
