<svg width="119" height="61" viewBox="0 0 119 61" fill="none" xmlns="http://www.w3.org/2000/svg">
<g filter="url(#filter0_d_48_17)">
<path fill-rule="evenodd" clip-rule="evenodd" d="M47.6005 2.00005C47.6005 2.00004 47.6005 2.00002 47.6005 2.00001C47.6005 2 47.6006 2 47.6006 2H102.027C107.535 2 112 6.46502 112 11.9729V37.6175C112 43.1253 107.535 47.5904 102.027 47.5904H47.6006C47.6006 47.5904 47.6006 47.5904 47.6005 47.5904C47.6005 47.5903 47.6005 47.5903 47.6005 47.5903L29.7833 32.3801C25.1196 28.3988 25.1196 21.1916 29.7833 17.2102L47.6005 2.00005ZM35.6143 29.0695C37.9748 29.0695 39.8884 27.1559 39.8884 24.7954C39.8884 22.4349 37.9748 20.5213 35.6143 20.5213C33.2538 20.5213 31.3402 22.4349 31.3402 24.7954C31.3402 27.1559 33.2538 29.0695 35.6143 29.0695Z" fill="#DBEDD5"/>
<path d="M29.7833 32.3801L30.4771 31.5675L29.7833 32.3801ZM29.7833 17.2102L30.4771 18.0229L29.7833 17.2102ZM47.6005 47.5903L48.2942 46.7776L47.6005 47.5903ZM47.6005 2.00005L46.9067 1.18738L47.6005 2.00005ZM47.6005 2.00001L47.9756 3.00053L47.6005 2.00001ZM102.027 0.931476H47.6006V3.06852H102.027V0.931476ZM113.069 11.9729C113.069 5.87489 108.125 0.931476 102.027 0.931476V3.06852C106.945 3.06852 110.932 7.05515 110.932 11.9729H113.069ZM113.069 37.6175V11.9729H110.932V37.6175H113.069ZM102.027 48.6589C108.125 48.6589 113.069 43.7155 113.069 37.6175H110.932C110.932 42.5352 106.945 46.5218 102.027 46.5218V48.6589ZM47.6006 48.6589H102.027V46.5218H47.6006V48.6589ZM29.0895 33.1928L46.9067 48.403L48.2942 46.7776L30.4771 31.5675L29.0895 33.1928ZM29.0895 16.3976C23.9262 20.8054 23.9262 28.7849 29.0895 33.1928L30.4771 31.5675C26.313 28.0127 26.313 21.5777 30.4771 18.0229L29.0895 16.3976ZM46.9067 1.18738L29.0895 16.3976L30.4771 18.0229L48.2942 2.81272L46.9067 1.18738ZM38.8199 24.7954C38.8199 26.5658 37.3847 28.001 35.6143 28.001V30.138C38.565 30.138 40.9569 27.7461 40.9569 24.7954H38.8199ZM35.6143 21.5898C37.3847 21.5898 38.8199 23.025 38.8199 24.7954H40.9569C40.9569 21.8448 38.565 19.4528 35.6143 19.4528V21.5898ZM32.4087 24.7954C32.4087 23.025 33.8439 21.5898 35.6143 21.5898V19.4528C32.6637 19.4528 30.2717 21.8448 30.2717 24.7954H32.4087ZM35.6143 28.001C33.8439 28.001 32.4087 26.5658 32.4087 24.7954H30.2717C30.2717 27.7461 32.6637 30.138 35.6143 30.138V28.001ZM47.9787 46.591C48.0914 46.6336 48.1986 46.696 48.2942 46.7776L46.9067 48.403C47.0024 48.4847 47.1096 48.5471 47.2224 48.5897L47.9787 46.591ZM47.6006 46.5218C47.7298 46.5218 47.8579 46.5453 47.9787 46.591L47.2224 48.5897C47.3432 48.6355 47.4714 48.6589 47.6006 48.6589V46.5218ZM47.2254 0.999497C47.1091 1.04312 47.0012 1.1067 46.9067 1.18738L48.2942 2.81272C48.1998 2.89337 48.0919 2.95693 47.9756 3.00053L47.2254 0.999497ZM47.9756 3.00053C47.8575 3.04483 47.7306 3.06852 47.6006 3.06852V0.931476C47.4706 0.931476 47.3436 0.955183 47.2254 0.999497L47.9756 3.00053Z" fill="#704F3D"/>
</g>
<g filter="url(#filter1_d_48_17)">
<line x1="7.4247" y1="24.7955" x2="34.494" y2="24.7955" stroke="#704F3D" stroke-width="2.8494" stroke-linecap="round"/>
</g>
<path d="M54.027 31.18C52.995 31.18 52.083 30.976 51.291 30.568C50.511 30.16 49.839 29.548 49.275 28.732L50.607 27.202C51.195 28.042 51.759 28.624 52.299 28.948C52.839 29.272 53.481 29.434 54.225 29.434C54.681 29.434 55.095 29.362 55.467 29.218C55.839 29.074 56.133 28.876 56.349 28.624C56.565 28.372 56.673 28.084 56.673 27.76C56.673 27.544 56.637 27.34 56.565 27.148C56.493 26.956 56.379 26.782 56.223 26.626C56.079 26.47 55.887 26.326 55.647 26.194C55.419 26.062 55.149 25.948 54.837 25.852C54.525 25.744 54.165 25.654 53.757 25.582C52.893 25.414 52.173 25.162 51.597 24.826C51.033 24.49 50.607 24.064 50.319 23.548C50.043 23.032 49.905 22.432 49.905 21.748C49.905 21.244 50.013 20.776 50.229 20.344C50.457 19.912 50.763 19.54 51.147 19.228C51.543 18.904 52.005 18.658 52.533 18.49C53.061 18.31 53.631 18.22 54.243 18.22C55.215 18.22 56.061 18.412 56.781 18.796C57.513 19.168 58.089 19.714 58.509 20.434L57.141 21.784C56.781 21.196 56.349 20.746 55.845 20.434C55.353 20.122 54.801 19.966 54.189 19.966C53.721 19.966 53.313 20.038 52.965 20.182C52.617 20.326 52.341 20.53 52.137 20.794C51.945 21.046 51.849 21.346 51.849 21.694C51.849 21.946 51.897 22.18 51.993 22.396C52.089 22.6 52.233 22.786 52.425 22.954C52.629 23.11 52.899 23.254 53.235 23.386C53.571 23.506 53.973 23.614 54.441 23.71C55.101 23.854 55.689 24.04 56.205 24.268C56.721 24.484 57.159 24.742 57.519 25.042C57.879 25.342 58.149 25.678 58.329 26.05C58.521 26.422 58.617 26.824 58.617 27.256C58.617 28.06 58.431 28.756 58.059 29.344C57.687 29.932 57.159 30.388 56.475 30.712C55.791 31.024 54.975 31.18 54.027 31.18ZM52.947 32.638V24.466L54.693 25.06V32.638H52.947ZM55.413 25.06L53.667 24.466V16.924H55.413V25.06ZM64.1254 31.18C63.2374 31.18 62.4634 30.976 61.8034 30.568C61.1554 30.16 60.5434 29.476 59.9674 28.516L61.4794 27.562C61.7794 28.006 62.0734 28.372 62.3614 28.66C62.6614 28.936 62.9674 29.14 63.2794 29.272C63.5914 29.404 63.9214 29.47 64.2694 29.47C64.6894 29.47 65.0794 29.368 65.4394 29.164C65.7994 28.948 66.0874 28.654 66.3034 28.282C66.5194 27.91 66.6274 27.49 66.6274 27.022C66.6274 26.554 66.5434 26.158 66.3754 25.834C66.2074 25.498 65.9614 25.246 65.6374 25.078C65.3134 24.898 64.9294 24.808 64.4854 24.808C64.2814 24.808 64.0654 24.832 63.8374 24.88C63.6214 24.916 63.3874 24.976 63.1354 25.06C62.8834 25.132 62.6074 25.228 62.3074 25.348L61.7674 23.926L65.6554 19.642L66.0334 20.2H60.6694V18.4H67.8874L68.2474 19.12L64.1254 23.692L63.6754 23.224C63.7714 23.176 63.9274 23.134 64.1434 23.098C64.3714 23.05 64.5574 23.026 64.7014 23.026C65.2294 23.026 65.7214 23.128 66.1774 23.332C66.6454 23.524 67.0474 23.8 67.3834 24.16C67.7314 24.508 68.0014 24.922 68.1934 25.402C68.3974 25.87 68.4994 26.374 68.4994 26.914C68.4994 27.73 68.3014 28.462 67.9054 29.11C67.5214 29.746 66.9994 30.25 66.3394 30.622C65.6794 30.994 64.9414 31.18 64.1254 31.18ZM73.7608 31.126C72.9328 31.126 72.1828 30.94 71.5108 30.568C70.8388 30.184 70.2808 29.638 69.8368 28.93L70.9168 27.724C71.4808 28.348 71.9728 28.774 72.3928 29.002C72.8128 29.23 73.2688 29.344 73.7608 29.344C74.2528 29.344 74.6968 29.236 75.0928 29.02C75.4888 28.804 75.8008 28.51 76.0288 28.138C76.2688 27.766 76.3888 27.352 76.3888 26.896C76.3888 26.416 76.2748 25.99 76.0468 25.618C75.8308 25.234 75.5368 24.934 75.1648 24.718C74.7928 24.49 74.3728 24.376 73.9048 24.376C73.6768 24.376 73.4608 24.394 73.2568 24.43C73.0528 24.454 72.8068 24.52 72.5188 24.628C72.2308 24.736 71.8528 24.904 71.3848 25.132L70.3588 23.746L71.0968 18.4H77.9008V20.2H72.3208L72.6988 19.858L72.1048 23.854L71.6548 23.332C71.7748 23.212 71.9788 23.098 72.2668 22.99C72.5548 22.87 72.8728 22.774 73.2208 22.702C73.5808 22.618 73.9228 22.576 74.2468 22.576C75.0148 22.576 75.6988 22.756 76.2988 23.116C76.9108 23.464 77.3908 23.95 77.7388 24.574C78.0988 25.198 78.2788 25.912 78.2788 26.716C78.2788 27.544 78.0808 28.294 77.6848 28.966C77.2888 29.626 76.7488 30.154 76.0648 30.55C75.3808 30.934 74.6128 31.126 73.7608 31.126ZM81.4172 31.198C81.0212 31.198 80.7152 31.084 80.4992 30.856C80.2832 30.616 80.1752 30.28 80.1752 29.848C80.1752 29.452 80.2892 29.128 80.5172 28.876C80.7452 28.624 81.0452 28.498 81.4172 28.498C81.8132 28.498 82.1192 28.618 82.3352 28.858C82.5512 29.086 82.6592 29.416 82.6592 29.848C82.6592 30.244 82.5452 30.568 82.3172 30.82C82.0892 31.072 81.7892 31.198 81.4172 31.198ZM88.0869 31.126C87.2589 31.126 86.5089 30.94 85.8369 30.568C85.1649 30.184 84.6069 29.638 84.1629 28.93L85.2429 27.724C85.8069 28.348 86.2989 28.774 86.7189 29.002C87.1389 29.23 87.5949 29.344 88.0869 29.344C88.5789 29.344 89.0229 29.236 89.4189 29.02C89.8149 28.804 90.1269 28.51 90.3549 28.138C90.5949 27.766 90.7149 27.352 90.7149 26.896C90.7149 26.416 90.6009 25.99 90.3729 25.618C90.1569 25.234 89.8629 24.934 89.4909 24.718C89.1189 24.49 88.6989 24.376 88.2309 24.376C88.0029 24.376 87.7869 24.394 87.5829 24.43C87.3789 24.454 87.1329 24.52 86.8449 24.628C86.5569 24.736 86.1789 24.904 85.7109 25.132L84.6849 23.746L85.4229 18.4H92.2269V20.2H86.6469L87.0249 19.858L86.4309 23.854L85.9809 23.332C86.1009 23.212 86.3049 23.098 86.5929 22.99C86.8809 22.87 87.1989 22.774 87.5469 22.702C87.9069 22.618 88.2489 22.576 88.5729 22.576C89.3409 22.576 90.0249 22.756 90.6249 23.116C91.2369 23.464 91.7169 23.95 92.0649 24.574C92.4249 25.198 92.6049 25.912 92.6049 26.716C92.6049 27.544 92.4069 28.294 92.0109 28.966C91.6149 29.626 91.0749 30.154 90.3909 30.55C89.7069 30.934 88.9389 31.126 88.0869 31.126ZM99.1454 31.18C98.1854 31.18 97.3574 30.916 96.6614 30.388C95.9774 29.86 95.4494 29.116 95.0774 28.156C94.7054 27.184 94.5194 26.032 94.5194 24.7C94.5194 23.368 94.7054 22.222 95.0774 21.262C95.4494 20.29 95.9774 19.54 96.6614 19.012C97.3574 18.484 98.1854 18.22 99.1454 18.22C100.105 18.22 100.933 18.484 101.629 19.012C102.325 19.54 102.859 20.29 103.231 21.262C103.603 22.222 103.789 23.368 103.789 24.7C103.789 26.032 103.603 27.184 103.231 28.156C102.859 29.116 102.325 29.86 101.629 30.388C100.933 30.916 100.105 31.18 99.1454 31.18ZM99.1454 29.416C100.021 29.416 100.699 29.008 101.179 28.192C101.659 27.364 101.899 26.2 101.899 24.7C101.899 23.2 101.659 22.042 101.179 21.226C100.699 20.398 100.021 19.984 99.1454 19.984C98.2694 19.984 97.5914 20.398 97.1114 21.226C96.6314 22.042 96.3914 23.2 96.3914 24.7C96.3914 26.2 96.6314 27.364 97.1114 28.192C97.5914 29.008 98.2694 29.416 99.1454 29.416Z" fill="#704F3D"/>
<defs>
<filter id="filter0_d_48_17" x="19.5182" y="0.931641" width="99.2492" height="59.1246" filterUnits="userSpaceOnUse" color-interpolation-filters="sRGB">
<feFlood flood-opacity="0" result="BackgroundImageFix"/>
<feColorMatrix in="SourceAlpha" type="matrix" values="0 0 0 0 0 0 0 0 0 0 0 0 0 0 0 0 0 0 127 0" result="hardAlpha"/>
<feOffset dy="5.6988"/>
<feGaussianBlur stdDeviation="2.8494"/>
<feComposite in2="hardAlpha" operator="out"/>
<feColorMatrix type="matrix" values="0 0 0 0 0 0 0 0 0 0 0 0 0 0 0 0 0 0 0.25 0"/>
<feBlend mode="normal" in2="BackgroundImageFix" result="effect1_dropShadow_48_17"/>
<feBlend mode="normal" in="SourceGraphic" in2="effect1_dropShadow_48_17" result="shape"/>
</filter>
<filter id="filter1_d_48_17" x="0.301204" y="23.3706" width="41.3163" height="14.2472" filterUnits="userSpaceOnUse" color-interpolation-filters="sRGB">
<feFlood flood-opacity="0" result="BackgroundImageFix"/>
<feColorMatrix in="SourceAlpha" type="matrix" values="0 0 0 0 0 0 0 0 0 0 0 0 0 0 0 0 0 0 127 0" result="hardAlpha"/>
<feOffset dy="5.6988"/>
<feGaussianBlur stdDeviation="2.8494"/>
<feComposite in2="hardAlpha" operator="out"/>
<feColorMatrix type="matrix" values="0 0 0 0 0 0 0 0 0 0 0 0 0 0 0 0 0 0 0.25 0"/>
<feBlend mode="normal" in2="BackgroundImageFix" result="effect1_dropShadow_48_17"/>
<feBlend mode="normal" in="SourceGraphic" in2="effect1_dropShadow_48_17" result="shape"/>
</filter>
</defs>
</svg>
