<svg width="286" height="48" viewBox="0 0 286 48" fill="none" xmlns="http://www.w3.org/2000/svg">
<g filter="url(#filter0_ii_232_12)">
<path d="M0 15C0 6.71573 6.71573 0 15 0H271C279.284 0 286 6.71573 286 15V33C286 41.2843 279.284 48 271 48H15C6.71573 48 0 41.2843 0 33V15Z" fill="#FF8185"/>
</g>
<path d="M2 15C2 7.8203 7.8203 2 15 2H271C278.18 2 284 7.8203 284 15V33C284 40.1797 278.18 46 271 46H15C7.8203 46 2 40.1797 2 33V15Z" stroke="white" stroke-width="4"/>
<path d="M29.1656 31H25.4256L24.3036 20.088L23.0716 31H19.2656L17.6156 15.754H20.9816L21.5096 27.92L22.7636 17.514H25.8876L27.0536 27.92L27.8016 15.754H30.9476L29.1656 31ZM35.427 26.182C35.647 27.9567 36.5857 28.844 38.243 28.844C39.2404 28.844 40.2377 28.5213 41.235 27.876L42.621 29.768C42.049 30.2667 41.367 30.6627 40.575 30.956C39.783 31.2347 38.9104 31.374 37.957 31.374C36.6517 31.374 35.5444 31.1173 34.635 30.604C33.7257 30.076 33.0364 29.35 32.567 28.426C32.1124 27.4873 31.885 26.402 31.885 25.17C31.885 23.9967 32.105 22.9407 32.545 22.002C32.9997 21.0487 33.6524 20.3007 34.503 19.758C35.3684 19.2007 36.395 18.922 37.583 18.922C38.6977 18.922 39.6657 19.164 40.487 19.648C41.3084 20.1173 41.939 20.8067 42.379 21.716C42.8337 22.6107 43.061 23.6813 43.061 24.928C43.061 25.412 43.039 25.83 42.995 26.182H35.427ZM37.583 21.254C36.9524 21.254 36.4464 21.4887 36.065 21.958C35.6837 22.4127 35.4564 23.1167 35.383 24.07H39.673C39.6437 22.1927 38.947 21.254 37.583 21.254ZM51.6985 27.326C51.6985 28.1913 52.1971 28.624 53.1945 28.624C53.7371 28.624 54.2945 28.5067 54.8665 28.272L55.6805 30.604C54.7418 31.1173 53.6198 31.374 52.3145 31.374C50.9505 31.374 49.9238 30.9853 49.2345 30.208C48.5598 29.416 48.2225 28.3087 48.2225 26.886V17.052H44.7905V14.676H51.6985V27.326ZM64.9999 28.624C65.4399 28.624 65.8652 28.5433 66.2759 28.382C66.6865 28.206 67.1265 27.9567 67.5959 27.634L69.1359 29.834C68.5785 30.3033 67.9332 30.6773 67.1999 30.956C66.4665 31.2347 65.6672 31.374 64.8019 31.374C63.5552 31.374 62.4772 31.1173 61.5679 30.604C60.6732 30.0907 59.9839 29.372 59.4999 28.448C59.0159 27.524 58.7739 26.4533 58.7739 25.236C58.7739 24.0187 59.0232 22.9333 59.5219 21.98C60.0205 21.0267 60.7245 20.2787 61.6339 19.736C62.5579 19.1933 63.6359 18.922 64.8679 18.922C65.7332 18.922 66.5105 19.0467 67.1999 19.296C67.8892 19.5307 68.5345 19.8973 69.1359 20.396L67.6399 22.486C66.7892 21.8993 65.9165 21.606 65.0219 21.606C63.2765 21.606 62.4039 22.816 62.4039 25.236C62.4039 26.4533 62.6312 27.326 63.0859 27.854C63.5405 28.3673 64.1785 28.624 64.9999 28.624ZM77.0473 18.922C78.8219 18.922 80.2079 19.4867 81.2053 20.616C82.2173 21.7307 82.7233 23.234 82.7233 25.126C82.7233 27.0913 82.2246 28.624 81.2273 29.724C80.2299 30.824 78.8366 31.374 77.0473 31.374C75.2579 31.374 73.8646 30.8313 72.8673 29.746C71.8699 28.646 71.3713 27.1133 71.3713 25.148C71.3713 23.9013 71.5913 22.816 72.0313 21.892C72.4859 20.9533 73.1386 20.2273 73.9893 19.714C74.8546 19.186 75.8739 18.922 77.0473 18.922ZM77.0473 21.496C76.3286 21.496 75.8006 21.7893 75.4633 22.376C75.1259 22.948 74.9573 23.872 74.9573 25.148C74.9573 26.4387 75.1259 27.3773 75.4633 27.964C75.8006 28.536 76.3286 28.822 77.0473 28.822C77.7659 28.822 78.2939 28.5287 78.6313 27.942C78.9686 27.3553 79.1373 26.4167 79.1373 25.126C79.1373 23.8647 78.9686 22.948 78.6313 22.376C78.2939 21.7893 77.7659 21.496 77.0473 21.496ZM93.8247 18.922C94.6607 18.922 95.2693 19.2007 95.6507 19.758C96.0467 20.3007 96.2447 21.166 96.2447 22.354V31H93.2747V22.75C93.2747 22.3247 93.2307 22.0313 93.1427 21.87C93.0693 21.7087 92.9227 21.628 92.7027 21.628C92.292 21.628 91.8887 21.8847 91.4927 22.398V31H89.0287V22.75C89.0287 22.3247 88.9847 22.0313 88.8967 21.87C88.8233 21.7087 88.6767 21.628 88.4567 21.628C88.046 21.628 87.6427 21.8847 87.2467 22.398V31H84.2327V19.318H86.7627L87.0047 20.44C87.386 19.912 87.76 19.5307 88.1267 19.296C88.508 19.0467 88.948 18.922 89.4467 18.922C89.9013 18.922 90.2827 19.0393 90.5907 19.274C90.8987 19.494 91.1187 19.8387 91.2507 20.308C92.0427 19.384 92.9007 18.922 93.8247 18.922ZM101.384 26.182C101.604 27.9567 102.543 28.844 104.2 28.844C105.197 28.844 106.195 28.5213 107.192 27.876L108.578 29.768C108.006 30.2667 107.324 30.6627 106.532 30.956C105.74 31.2347 104.867 31.374 103.914 31.374C102.609 31.374 101.501 31.1173 100.592 30.604C99.6827 30.076 98.9934 29.35 98.5241 28.426C98.0694 27.4873 97.8421 26.402 97.8421 25.17C97.8421 23.9967 98.0621 22.9407 98.5021 22.002C98.9567 21.0487 99.6094 20.3007 100.46 19.758C101.325 19.2007 102.352 18.922 103.54 18.922C104.655 18.922 105.623 19.164 106.444 19.648C107.265 20.1173 107.896 20.8067 108.336 21.716C108.791 22.6107 109.018 23.6813 109.018 24.928C109.018 25.412 108.996 25.83 108.952 26.182H101.384ZM103.54 21.254C102.909 21.254 102.403 21.4887 102.022 21.958C101.641 22.4127 101.413 23.1167 101.34 24.07H105.63C105.601 22.1927 104.904 21.254 103.54 21.254ZM135.269 30.318C134.169 31.022 132.893 31.374 131.441 31.374C129.945 31.374 128.816 30.9927 128.053 30.23C127.305 29.4673 126.931 28.3967 126.931 27.018V21.716H124.489V19.318H126.931V16.788L130.407 16.37V19.318H134.169L133.817 21.716H130.407V27.018C130.407 27.59 130.539 28.0007 130.803 28.25C131.067 28.4993 131.492 28.624 132.079 28.624C132.812 28.624 133.494 28.448 134.125 28.096L135.269 30.318ZM143.004 18.922C144.779 18.922 146.165 19.4867 147.162 20.616C148.174 21.7307 148.68 23.234 148.68 25.126C148.68 27.0913 148.182 28.624 147.184 29.724C146.187 30.824 144.794 31.374 143.004 31.374C141.215 31.374 139.822 30.8313 138.824 29.746C137.827 28.646 137.328 27.1133 137.328 25.148C137.328 23.9013 137.548 22.816 137.988 21.892C138.443 20.9533 139.096 20.2273 139.946 19.714C140.812 19.186 141.831 18.922 143.004 18.922ZM143.004 21.496C142.286 21.496 141.758 21.7893 141.42 22.376C141.083 22.948 140.914 23.872 140.914 25.148C140.914 26.4387 141.083 27.3773 141.42 27.964C141.758 28.536 142.286 28.822 143.004 28.822C143.723 28.822 144.251 28.5287 144.588 27.942C144.926 27.3553 145.094 26.4167 145.094 25.126C145.094 23.8647 144.926 22.948 144.588 22.376C144.251 21.7893 143.723 21.496 143.004 21.496ZM175.063 25.896C175.063 26.952 174.85 27.898 174.425 28.734C174 29.5553 173.362 30.2007 172.511 30.67C171.66 31.1393 170.619 31.374 169.387 31.374C167.539 31.374 166.131 30.8827 165.163 29.9C164.195 28.9173 163.711 27.5827 163.711 25.896V15.754H167.341V24.554C167.341 25.5367 167.392 26.3213 167.495 26.908C167.598 27.4947 167.796 27.942 168.089 28.25C168.397 28.5433 168.83 28.69 169.387 28.69C169.944 28.69 170.37 28.5433 170.663 28.25C170.971 27.942 171.176 27.4947 171.279 26.908C171.382 26.3213 171.433 25.5367 171.433 24.554V15.754H175.063V25.896ZM177.519 19.318H180.555L180.797 20.66C181.325 20.0733 181.875 19.6407 182.447 19.362C183.033 19.0687 183.693 18.922 184.427 18.922C185.439 18.922 186.223 19.23 186.781 19.846C187.353 20.462 187.639 21.32 187.639 22.42V31H184.163V23.432C184.163 22.6987 184.082 22.1927 183.921 21.914C183.759 21.6353 183.466 21.496 183.041 21.496C182.689 21.496 182.344 21.6133 182.007 21.848C181.684 22.068 181.347 22.398 180.995 22.838V31H177.519V19.318ZM195.748 13.202C196.349 13.202 196.841 13.3927 197.222 13.774C197.603 14.1407 197.794 14.6027 197.794 15.16C197.794 15.732 197.603 16.2013 197.222 16.568C196.841 16.9347 196.349 17.118 195.748 17.118C195.147 17.118 194.648 16.9347 194.252 16.568C193.871 16.1867 193.68 15.7173 193.68 15.16C193.68 14.6027 193.871 14.1407 194.252 13.774C194.648 13.3927 195.147 13.202 195.748 13.202ZM197.838 28.624H200.83V31H191.062V28.624H194.362V21.694H191.172V19.318H197.838V28.624ZM207.971 18.922C208.543 18.922 209.071 19.0393 209.555 19.274C210.054 19.494 210.479 19.824 210.831 20.264L210.985 19.318H214.021V35.884L210.545 35.51V30.01C209.783 30.9193 208.785 31.374 207.553 31.374C206.101 31.374 205.023 30.824 204.319 29.724C203.63 28.624 203.285 27.0913 203.285 25.126C203.285 23.9233 203.469 22.8527 203.835 21.914C204.202 20.9753 204.737 20.242 205.441 19.714C206.145 19.186 206.989 18.922 207.971 18.922ZM208.873 21.474C208.213 21.474 207.715 21.7673 207.377 22.354C207.04 22.9407 206.871 23.872 206.871 25.148C206.871 26.512 207.018 27.4653 207.311 28.008C207.619 28.536 208.067 28.8 208.653 28.8C209.401 28.8 210.032 28.36 210.545 27.48V22.442C210.311 22.1193 210.054 21.8773 209.775 21.716C209.511 21.5547 209.211 21.474 208.873 21.474ZM217.929 22.772H226.377V25.456H217.929V22.772ZM236.378 27.326C236.378 28.1913 236.877 28.624 237.874 28.624C238.417 28.624 238.974 28.5067 239.546 28.272L240.36 30.604C239.421 31.1173 238.299 31.374 236.994 31.374C235.63 31.374 234.603 30.9853 233.914 30.208C233.239 29.416 232.902 28.3087 232.902 26.886V17.052H229.47V14.676H236.378V27.326ZM250.626 31C250.098 32.5693 249.313 33.75 248.272 34.542C247.23 35.3487 245.837 35.8033 244.092 35.906L243.696 33.442C244.81 33.2953 245.632 33.046 246.16 32.694C246.702 32.342 247.135 31.7773 247.458 31H246.248L242.552 19.318H246.226L248.492 28.778L250.956 19.318H254.52L250.626 31ZM263.135 25.39H260.341L259.879 15.754H263.575L263.135 25.39ZM261.727 27.392C262.284 27.392 262.754 27.59 263.135 27.986C263.516 28.3673 263.707 28.8293 263.707 29.372C263.707 29.9293 263.516 30.406 263.135 30.802C262.754 31.1833 262.284 31.374 261.727 31.374C261.184 31.374 260.715 31.1833 260.319 30.802C259.938 30.406 259.747 29.9293 259.747 29.372C259.747 28.8293 259.938 28.3673 260.319 27.986C260.715 27.59 261.184 27.392 261.727 27.392Z" fill="white"/>
<defs>
<filter id="filter0_ii_232_12" x="0" y="-4" width="286" height="56" filterUnits="userSpaceOnUse" color-interpolation-filters="sRGB">
<feFlood flood-opacity="0" result="BackgroundImageFix"/>
<feBlend mode="normal" in="SourceGraphic" in2="BackgroundImageFix" result="shape"/>
<feColorMatrix in="SourceAlpha" type="matrix" values="0 0 0 0 0 0 0 0 0 0 0 0 0 0 0 0 0 0 127 0" result="hardAlpha"/>
<feOffset dy="-5"/>
<feGaussianBlur stdDeviation="2"/>
<feComposite in2="hardAlpha" operator="arithmetic" k2="-1" k3="1"/>
<feColorMatrix type="matrix" values="0 0 0 0 0.541667 0 0 0 0 0.121875 0 0 0 0 0.135202 0 0 0 1 0"/>
<feBlend mode="normal" in2="shape" result="effect1_innerShadow_232_12"/>
<feColorMatrix in="SourceAlpha" type="matrix" values="0 0 0 0 0 0 0 0 0 0 0 0 0 0 0 0 0 0 127 0" result="hardAlpha"/>
<feOffset dy="5"/>
<feGaussianBlur stdDeviation="2"/>
<feComposite in2="hardAlpha" operator="arithmetic" k2="-1" k3="1"/>
<feColorMatrix type="matrix" values="0 0 0 0 0.979167 0 0 0 0 0.938368 0 0 0 0 0.939663 0 0 0 1 0"/>
<feBlend mode="normal" in2="effect1_innerShadow_232_12" result="effect2_innerShadow_232_12"/>
</filter>
</defs>
</svg>
